G04 EAGLE Gerber RS-274X export*
G75*
%MOMM*%
%FSLAX34Y34*%
%LPD*%
%INSolder paste top*%
%IPPOS*%
%AMOC8*
5,1,8,0,0,1.08239X$1,22.5*%
G01*
%ADD10R,0.600000X0.700000*%
%ADD11R,0.700000X0.600000*%
%ADD12R,1.900000X1.800000*%
%ADD13R,1.750000X0.400000*%
%ADD14R,1.600000X2.100000*%
%ADD15R,1.450000X0.650000*%
%ADD16R,0.540000X1.400000*%
%ADD17R,1.000000X1.400000*%


D10*
X315810Y52070D03*
X326810Y52070D03*
X32600Y38100D03*
X43600Y38100D03*
X312000Y120650D03*
X323000Y120650D03*
D11*
X142240Y83400D03*
X142240Y94400D03*
X265430Y94400D03*
X265430Y83400D03*
X276860Y94400D03*
X276860Y83400D03*
D12*
X391160Y128900D03*
X391160Y48900D03*
D13*
X362410Y88900D03*
X362410Y95400D03*
X362410Y82400D03*
X362410Y101900D03*
X362410Y75900D03*
D14*
X365660Y119900D03*
X365660Y57900D03*
D10*
X35140Y138430D03*
X46140Y138430D03*
D15*
X73770Y130130D03*
X119270Y130130D03*
X73770Y108630D03*
X119270Y108630D03*
X73770Y67900D03*
X119270Y67900D03*
X73770Y46400D03*
X119270Y46400D03*
D16*
G36*
X148188Y69668D02*
X144370Y73486D01*
X154268Y83384D01*
X158086Y79566D01*
X148188Y69668D01*
G37*
G36*
X153845Y64011D02*
X150027Y67829D01*
X159925Y77727D01*
X163743Y73909D01*
X153845Y64011D01*
G37*
G36*
X159501Y58354D02*
X155683Y62172D01*
X165581Y72070D01*
X169399Y68252D01*
X159501Y58354D01*
G37*
G36*
X165158Y52697D02*
X161340Y56515D01*
X171238Y66413D01*
X175056Y62595D01*
X165158Y52697D01*
G37*
G36*
X170815Y47040D02*
X166997Y50858D01*
X176895Y60756D01*
X180713Y56938D01*
X170815Y47040D01*
G37*
G36*
X176401Y41454D02*
X172583Y45272D01*
X182481Y55170D01*
X186299Y51352D01*
X176401Y41454D01*
G37*
G36*
X182058Y35797D02*
X178240Y39615D01*
X188138Y49513D01*
X191956Y45695D01*
X182058Y35797D01*
G37*
G36*
X187715Y30140D02*
X183897Y33958D01*
X193795Y43856D01*
X197613Y40038D01*
X187715Y30140D01*
G37*
G36*
X222432Y33888D02*
X218614Y30070D01*
X208716Y39968D01*
X212534Y43786D01*
X222432Y33888D01*
G37*
G36*
X228089Y39545D02*
X224271Y35727D01*
X214373Y45625D01*
X218191Y49443D01*
X228089Y39545D01*
G37*
G36*
X233746Y45201D02*
X229928Y41383D01*
X220030Y51281D01*
X223848Y55099D01*
X233746Y45201D01*
G37*
G36*
X239403Y50858D02*
X235585Y47040D01*
X225687Y56938D01*
X229505Y60756D01*
X239403Y50858D01*
G37*
G36*
X245060Y56515D02*
X241242Y52697D01*
X231344Y62595D01*
X235162Y66413D01*
X245060Y56515D01*
G37*
G36*
X250717Y62172D02*
X246899Y58354D01*
X237001Y68252D01*
X240819Y72070D01*
X250717Y62172D01*
G37*
G36*
X256373Y67829D02*
X252555Y64011D01*
X242657Y73909D01*
X246475Y77727D01*
X256373Y67829D01*
G37*
G36*
X262030Y73486D02*
X258212Y69668D01*
X248314Y79566D01*
X252132Y83384D01*
X262030Y73486D01*
G37*
G36*
X258212Y108132D02*
X262030Y104314D01*
X252132Y94416D01*
X248314Y98234D01*
X258212Y108132D01*
G37*
G36*
X252555Y113789D02*
X256373Y109971D01*
X246475Y100073D01*
X242657Y103891D01*
X252555Y113789D01*
G37*
G36*
X246899Y119446D02*
X250717Y115628D01*
X240819Y105730D01*
X237001Y109548D01*
X246899Y119446D01*
G37*
G36*
X241242Y125103D02*
X245060Y121285D01*
X235162Y111387D01*
X231344Y115205D01*
X241242Y125103D01*
G37*
G36*
X235585Y130760D02*
X239403Y126942D01*
X229505Y117044D01*
X225687Y120862D01*
X235585Y130760D01*
G37*
G36*
X229928Y136417D02*
X233746Y132599D01*
X223848Y122701D01*
X220030Y126519D01*
X229928Y136417D01*
G37*
G36*
X224271Y142073D02*
X228089Y138255D01*
X218191Y128357D01*
X214373Y132175D01*
X224271Y142073D01*
G37*
G36*
X218614Y147730D02*
X222432Y143912D01*
X212534Y134014D01*
X208716Y137832D01*
X218614Y147730D01*
G37*
G36*
X183968Y143912D02*
X187786Y147730D01*
X197684Y137832D01*
X193866Y134014D01*
X183968Y143912D01*
G37*
G36*
X178311Y138255D02*
X182129Y142073D01*
X192027Y132175D01*
X188209Y128357D01*
X178311Y138255D01*
G37*
G36*
X172654Y132599D02*
X176472Y136417D01*
X186370Y126519D01*
X182552Y122701D01*
X172654Y132599D01*
G37*
G36*
X166997Y126942D02*
X170815Y130760D01*
X180713Y120862D01*
X176895Y117044D01*
X166997Y126942D01*
G37*
G36*
X161340Y121285D02*
X165158Y125103D01*
X175056Y115205D01*
X171238Y111387D01*
X161340Y121285D01*
G37*
G36*
X155683Y115628D02*
X159501Y119446D01*
X169399Y109548D01*
X165581Y105730D01*
X155683Y115628D01*
G37*
G36*
X150027Y109971D02*
X153845Y113789D01*
X163743Y103891D01*
X159925Y100073D01*
X150027Y109971D01*
G37*
G36*
X144370Y104314D02*
X148188Y108132D01*
X158086Y98234D01*
X154268Y94416D01*
X144370Y104314D01*
G37*
D17*
X316230Y76630D03*
X306730Y98630D03*
X325730Y98630D03*
M02*
