M48
;GenerationSoftware,Autodesk,EAGLE,9.3.0*%
;CreationDate,2019-03-23T08:22:29Z*%
FMAT,2
ICI,OFF
METRIC,TZ,000.000
T4C0.350
T3C0.500
T2C1.000
T1C1.200
%
G90
M71
T1
X39116Y10090
X39116Y7690
T2
X1270Y5080
X39370Y16510
X1270Y7620
X1270Y10160
X1270Y12700
X36830Y1270
X1270Y16510
X1270Y1270
X3810Y1270
X6350Y1270
X8890Y1270
X11430Y1270
X13970Y1270
X16510Y1270
X19050Y1270
X21590Y1270
X24130Y1270
X26670Y1270
X29210Y1270
X31750Y1270
X34290Y1270
X3810Y16510
X39370Y1270
X6350Y16510
X36830Y16510
X34290Y16510
X31750Y16510
X29210Y16510
X26670Y16510
X24130Y16510
X21590Y16510
X19050Y16510
X16510Y16510
X13970Y16510
X11430Y16510
X8890Y16510
T3
X29210Y11430
X9017Y12827
T4
X18161Y8382
X21082Y12192
X20320Y12827
X34544Y9398
X34544Y8382
X18034Y7239
X17145Y8001
M30