G04 EAGLE Gerber RS-274X export*
G75*
%MOMM*%
%FSLAX34Y34*%
%LPD*%
%INSolder Mask bottom*%
%IPPOS*%
%AMOC8*
5,1,8,0,0,1.08239X$1,22.5*%
G01*
%ADD10R,0.600000X0.700000*%
%ADD11R,0.700000X0.600000*%
%ADD12R,1.500000X1.500000*%
%ADD13C,1.500000*%
%ADD14R,1.900000X1.900000*%
%ADD15R,1.900000X1.200000*%


D10*
X206590Y110490D03*
X217590Y110490D03*
X218860Y63500D03*
X207860Y63500D03*
D11*
X121920Y33870D03*
X121920Y44870D03*
X107950Y33870D03*
X107950Y44870D03*
D12*
X12700Y12700D03*
D13*
X38100Y12700D03*
X63500Y12700D03*
X88900Y12700D03*
X114300Y12700D03*
X139700Y12700D03*
X165100Y12700D03*
X190500Y12700D03*
X215900Y12700D03*
X241300Y12700D03*
X266700Y12700D03*
X292100Y12700D03*
X317500Y12700D03*
X342900Y12700D03*
X368300Y12700D03*
X393700Y12700D03*
X393700Y165100D03*
X368300Y165100D03*
X342900Y165100D03*
X317500Y165100D03*
X292100Y165100D03*
X266700Y165100D03*
X241300Y165100D03*
X215900Y165100D03*
X190500Y165100D03*
X165100Y165100D03*
X139700Y165100D03*
X114300Y165100D03*
X88900Y165100D03*
X63500Y165100D03*
X38100Y165100D03*
X12700Y165100D03*
D14*
X391160Y76900D03*
X391160Y100900D03*
D13*
X12700Y127000D03*
X12700Y101600D03*
X12700Y76200D03*
X12700Y50800D03*
D15*
X200760Y94360D03*
X225960Y94360D03*
X225960Y78360D03*
X200760Y78360D03*
M02*
