G04 EAGLE Gerber RS-274X export*
G75*
%MOMM*%
%FSLAX34Y34*%
%LPD*%
%INSilk top*%
%IPPOS*%
%AMOC8*
5,1,8,0,0,1.08239X$1,22.5*%
G01*
%ADD10C,0.050800*%
%ADD11C,0.127000*%
%ADD12C,0.200000*%
%ADD13C,0.076200*%


D10*
X37310Y127395D02*
X38495Y127395D01*
X38495Y123444D01*
X36124Y123444D01*
X36046Y123446D01*
X35969Y123452D01*
X35892Y123461D01*
X35816Y123474D01*
X35740Y123491D01*
X35665Y123512D01*
X35592Y123536D01*
X35519Y123564D01*
X35448Y123596D01*
X35379Y123631D01*
X35312Y123669D01*
X35246Y123710D01*
X35183Y123755D01*
X35122Y123803D01*
X35063Y123853D01*
X35007Y123907D01*
X34953Y123963D01*
X34903Y124022D01*
X34855Y124083D01*
X34810Y124146D01*
X34769Y124212D01*
X34731Y124279D01*
X34696Y124348D01*
X34664Y124419D01*
X34636Y124492D01*
X34612Y124565D01*
X34591Y124640D01*
X34574Y124716D01*
X34561Y124792D01*
X34552Y124869D01*
X34546Y124946D01*
X34544Y125024D01*
X34544Y128976D01*
X34546Y129054D01*
X34552Y129131D01*
X34561Y129208D01*
X34574Y129284D01*
X34591Y129360D01*
X34612Y129435D01*
X34636Y129508D01*
X34664Y129581D01*
X34696Y129652D01*
X34731Y129721D01*
X34769Y129788D01*
X34810Y129854D01*
X34855Y129917D01*
X34903Y129978D01*
X34953Y130037D01*
X35007Y130093D01*
X35063Y130147D01*
X35122Y130197D01*
X35183Y130245D01*
X35246Y130290D01*
X35312Y130331D01*
X35379Y130369D01*
X35448Y130404D01*
X35519Y130436D01*
X35592Y130464D01*
X35665Y130488D01*
X35740Y130509D01*
X35816Y130526D01*
X35892Y130539D01*
X35969Y130548D01*
X36046Y130554D01*
X36124Y130556D01*
X38495Y130556D01*
X41859Y130556D02*
X41859Y123444D01*
X45810Y123444D02*
X41859Y130556D01*
X45810Y130556D02*
X45810Y123444D01*
X49174Y123444D02*
X49174Y130556D01*
X51150Y130556D01*
X51236Y130554D01*
X51322Y130548D01*
X51408Y130539D01*
X51493Y130526D01*
X51578Y130509D01*
X51661Y130489D01*
X51744Y130465D01*
X51826Y130437D01*
X51906Y130406D01*
X51985Y130371D01*
X52062Y130333D01*
X52138Y130291D01*
X52212Y130247D01*
X52283Y130199D01*
X52353Y130148D01*
X52420Y130094D01*
X52485Y130037D01*
X52547Y129977D01*
X52607Y129915D01*
X52664Y129850D01*
X52718Y129783D01*
X52769Y129713D01*
X52817Y129642D01*
X52861Y129568D01*
X52903Y129492D01*
X52941Y129415D01*
X52976Y129336D01*
X53007Y129256D01*
X53035Y129174D01*
X53059Y129091D01*
X53079Y129008D01*
X53096Y128923D01*
X53109Y128838D01*
X53118Y128752D01*
X53124Y128666D01*
X53126Y128580D01*
X53125Y128580D02*
X53125Y125420D01*
X53126Y125420D02*
X53124Y125334D01*
X53118Y125248D01*
X53109Y125162D01*
X53096Y125077D01*
X53079Y124992D01*
X53059Y124909D01*
X53035Y124826D01*
X53007Y124744D01*
X52976Y124664D01*
X52941Y124585D01*
X52903Y124508D01*
X52861Y124432D01*
X52817Y124358D01*
X52769Y124287D01*
X52718Y124217D01*
X52664Y124150D01*
X52607Y124085D01*
X52547Y124023D01*
X52485Y123963D01*
X52420Y123906D01*
X52353Y123852D01*
X52283Y123801D01*
X52212Y123753D01*
X52138Y123709D01*
X52062Y123667D01*
X51985Y123629D01*
X51906Y123594D01*
X51826Y123563D01*
X51744Y123535D01*
X51661Y123511D01*
X51578Y123491D01*
X51493Y123474D01*
X51408Y123461D01*
X51322Y123452D01*
X51236Y123446D01*
X51150Y123444D01*
X49174Y123444D01*
X37225Y99624D02*
X37223Y99546D01*
X37217Y99469D01*
X37208Y99392D01*
X37195Y99316D01*
X37178Y99240D01*
X37157Y99165D01*
X37133Y99092D01*
X37105Y99019D01*
X37073Y98948D01*
X37038Y98879D01*
X37000Y98812D01*
X36959Y98746D01*
X36914Y98683D01*
X36866Y98622D01*
X36816Y98563D01*
X36762Y98507D01*
X36706Y98453D01*
X36647Y98403D01*
X36586Y98355D01*
X36523Y98310D01*
X36457Y98269D01*
X36390Y98231D01*
X36321Y98196D01*
X36250Y98164D01*
X36177Y98136D01*
X36104Y98112D01*
X36029Y98091D01*
X35953Y98074D01*
X35877Y98061D01*
X35800Y98052D01*
X35723Y98046D01*
X35645Y98044D01*
X35530Y98046D01*
X35416Y98052D01*
X35302Y98062D01*
X35188Y98075D01*
X35075Y98093D01*
X34962Y98115D01*
X34850Y98140D01*
X34740Y98169D01*
X34630Y98202D01*
X34521Y98239D01*
X34414Y98279D01*
X34308Y98323D01*
X34204Y98371D01*
X34101Y98422D01*
X34001Y98477D01*
X33902Y98535D01*
X33805Y98597D01*
X33711Y98661D01*
X33618Y98729D01*
X33528Y98801D01*
X33441Y98875D01*
X33356Y98952D01*
X33274Y99032D01*
X33472Y103576D02*
X33474Y103654D01*
X33480Y103731D01*
X33489Y103808D01*
X33502Y103884D01*
X33519Y103960D01*
X33540Y104035D01*
X33564Y104108D01*
X33592Y104181D01*
X33624Y104252D01*
X33659Y104321D01*
X33697Y104388D01*
X33738Y104454D01*
X33783Y104517D01*
X33831Y104578D01*
X33881Y104637D01*
X33935Y104693D01*
X33991Y104747D01*
X34050Y104797D01*
X34111Y104845D01*
X34174Y104890D01*
X34240Y104931D01*
X34307Y104969D01*
X34376Y105004D01*
X34447Y105036D01*
X34520Y105064D01*
X34593Y105088D01*
X34668Y105109D01*
X34744Y105126D01*
X34820Y105139D01*
X34897Y105148D01*
X34975Y105154D01*
X35052Y105156D01*
X35158Y105154D01*
X35264Y105148D01*
X35369Y105139D01*
X35474Y105126D01*
X35579Y105109D01*
X35683Y105088D01*
X35786Y105064D01*
X35888Y105036D01*
X35989Y105004D01*
X36089Y104969D01*
X36187Y104930D01*
X36285Y104887D01*
X36380Y104842D01*
X36474Y104793D01*
X36566Y104740D01*
X36656Y104684D01*
X36744Y104625D01*
X36830Y104563D01*
X34262Y102193D02*
X34195Y102235D01*
X34130Y102280D01*
X34067Y102329D01*
X34006Y102380D01*
X33949Y102435D01*
X33894Y102492D01*
X33841Y102552D01*
X33792Y102614D01*
X33746Y102679D01*
X33704Y102745D01*
X33664Y102814D01*
X33628Y102885D01*
X33596Y102958D01*
X33567Y103032D01*
X33542Y103107D01*
X33521Y103183D01*
X33503Y103261D01*
X33490Y103339D01*
X33480Y103418D01*
X33474Y103497D01*
X33472Y103576D01*
X36435Y101007D02*
X36502Y100965D01*
X36567Y100920D01*
X36630Y100871D01*
X36691Y100820D01*
X36748Y100765D01*
X36803Y100708D01*
X36856Y100648D01*
X36905Y100586D01*
X36951Y100521D01*
X36993Y100455D01*
X37033Y100386D01*
X37069Y100315D01*
X37101Y100242D01*
X37130Y100168D01*
X37155Y100093D01*
X37176Y100017D01*
X37194Y99939D01*
X37207Y99861D01*
X37217Y99782D01*
X37223Y99703D01*
X37225Y99624D01*
X36435Y101007D02*
X34262Y102193D01*
X39632Y105156D02*
X41213Y98044D01*
X42793Y102785D01*
X44374Y98044D01*
X45954Y105156D01*
X50152Y98044D02*
X51733Y98044D01*
X50152Y98044D02*
X50074Y98046D01*
X49997Y98052D01*
X49920Y98061D01*
X49844Y98074D01*
X49768Y98091D01*
X49693Y98112D01*
X49620Y98136D01*
X49547Y98164D01*
X49476Y98196D01*
X49407Y98231D01*
X49340Y98269D01*
X49274Y98310D01*
X49211Y98355D01*
X49150Y98403D01*
X49091Y98453D01*
X49035Y98507D01*
X48981Y98563D01*
X48931Y98622D01*
X48883Y98683D01*
X48838Y98746D01*
X48797Y98812D01*
X48759Y98879D01*
X48724Y98948D01*
X48692Y99019D01*
X48664Y99092D01*
X48640Y99165D01*
X48619Y99240D01*
X48602Y99316D01*
X48589Y99392D01*
X48580Y99469D01*
X48574Y99546D01*
X48572Y99624D01*
X48572Y103576D01*
X48574Y103654D01*
X48580Y103731D01*
X48589Y103808D01*
X48602Y103884D01*
X48619Y103960D01*
X48640Y104035D01*
X48664Y104108D01*
X48692Y104181D01*
X48724Y104252D01*
X48759Y104321D01*
X48797Y104388D01*
X48838Y104454D01*
X48883Y104517D01*
X48931Y104578D01*
X48981Y104637D01*
X49035Y104693D01*
X49091Y104747D01*
X49150Y104797D01*
X49211Y104845D01*
X49274Y104890D01*
X49340Y104931D01*
X49407Y104969D01*
X49476Y105004D01*
X49547Y105036D01*
X49620Y105064D01*
X49693Y105088D01*
X49768Y105109D01*
X49844Y105126D01*
X49920Y105139D01*
X49997Y105148D01*
X50074Y105154D01*
X50152Y105156D01*
X51733Y105156D01*
X54546Y105156D02*
X54546Y98044D01*
X57707Y98044D01*
X60570Y98044D02*
X60570Y105156D01*
X64522Y105156D02*
X60570Y100810D01*
X62151Y102390D02*
X64522Y98044D01*
X37225Y74224D02*
X37223Y74146D01*
X37217Y74069D01*
X37208Y73992D01*
X37195Y73916D01*
X37178Y73840D01*
X37157Y73765D01*
X37133Y73692D01*
X37105Y73619D01*
X37073Y73548D01*
X37038Y73479D01*
X37000Y73412D01*
X36959Y73346D01*
X36914Y73283D01*
X36866Y73222D01*
X36816Y73163D01*
X36762Y73107D01*
X36706Y73053D01*
X36647Y73003D01*
X36586Y72955D01*
X36523Y72910D01*
X36457Y72869D01*
X36390Y72831D01*
X36321Y72796D01*
X36250Y72764D01*
X36177Y72736D01*
X36104Y72712D01*
X36029Y72691D01*
X35953Y72674D01*
X35877Y72661D01*
X35800Y72652D01*
X35723Y72646D01*
X35645Y72644D01*
X35530Y72646D01*
X35416Y72652D01*
X35302Y72662D01*
X35188Y72675D01*
X35075Y72693D01*
X34962Y72715D01*
X34850Y72740D01*
X34740Y72769D01*
X34630Y72802D01*
X34521Y72839D01*
X34414Y72879D01*
X34308Y72923D01*
X34204Y72971D01*
X34101Y73022D01*
X34001Y73077D01*
X33902Y73135D01*
X33805Y73197D01*
X33711Y73261D01*
X33618Y73329D01*
X33528Y73401D01*
X33441Y73475D01*
X33356Y73552D01*
X33274Y73632D01*
X33472Y78176D02*
X33474Y78254D01*
X33480Y78331D01*
X33489Y78408D01*
X33502Y78484D01*
X33519Y78560D01*
X33540Y78635D01*
X33564Y78708D01*
X33592Y78781D01*
X33624Y78852D01*
X33659Y78921D01*
X33697Y78988D01*
X33738Y79054D01*
X33783Y79117D01*
X33831Y79178D01*
X33881Y79237D01*
X33935Y79293D01*
X33991Y79347D01*
X34050Y79397D01*
X34111Y79445D01*
X34174Y79490D01*
X34240Y79531D01*
X34307Y79569D01*
X34376Y79604D01*
X34447Y79636D01*
X34520Y79664D01*
X34593Y79688D01*
X34668Y79709D01*
X34744Y79726D01*
X34820Y79739D01*
X34897Y79748D01*
X34975Y79754D01*
X35052Y79756D01*
X35158Y79754D01*
X35264Y79748D01*
X35369Y79739D01*
X35474Y79726D01*
X35579Y79709D01*
X35683Y79688D01*
X35786Y79664D01*
X35888Y79636D01*
X35989Y79604D01*
X36089Y79569D01*
X36187Y79530D01*
X36285Y79487D01*
X36380Y79442D01*
X36474Y79393D01*
X36566Y79340D01*
X36656Y79284D01*
X36744Y79225D01*
X36830Y79163D01*
X34262Y76793D02*
X34195Y76835D01*
X34130Y76880D01*
X34067Y76929D01*
X34006Y76980D01*
X33949Y77035D01*
X33894Y77092D01*
X33841Y77152D01*
X33792Y77214D01*
X33746Y77279D01*
X33704Y77345D01*
X33664Y77414D01*
X33628Y77485D01*
X33596Y77558D01*
X33567Y77632D01*
X33542Y77707D01*
X33521Y77783D01*
X33503Y77861D01*
X33490Y77939D01*
X33480Y78018D01*
X33474Y78097D01*
X33472Y78176D01*
X36435Y75607D02*
X36502Y75565D01*
X36567Y75520D01*
X36630Y75471D01*
X36691Y75420D01*
X36748Y75365D01*
X36803Y75308D01*
X36856Y75248D01*
X36905Y75186D01*
X36951Y75121D01*
X36993Y75055D01*
X37033Y74986D01*
X37069Y74915D01*
X37101Y74842D01*
X37130Y74768D01*
X37155Y74693D01*
X37176Y74617D01*
X37194Y74539D01*
X37207Y74461D01*
X37217Y74382D01*
X37223Y74303D01*
X37225Y74224D01*
X36435Y75607D02*
X34262Y76793D01*
X39632Y79756D02*
X41213Y72644D01*
X42793Y77385D01*
X44374Y72644D01*
X45954Y79756D01*
X48819Y79756D02*
X48819Y72644D01*
X48819Y79756D02*
X50794Y79756D01*
X50880Y79754D01*
X50966Y79748D01*
X51052Y79739D01*
X51137Y79726D01*
X51222Y79709D01*
X51305Y79689D01*
X51388Y79665D01*
X51470Y79637D01*
X51550Y79606D01*
X51629Y79571D01*
X51706Y79533D01*
X51782Y79491D01*
X51856Y79447D01*
X51927Y79399D01*
X51997Y79348D01*
X52064Y79294D01*
X52129Y79237D01*
X52191Y79177D01*
X52251Y79115D01*
X52308Y79050D01*
X52362Y78983D01*
X52413Y78913D01*
X52461Y78842D01*
X52505Y78768D01*
X52547Y78692D01*
X52585Y78615D01*
X52620Y78536D01*
X52651Y78456D01*
X52679Y78374D01*
X52703Y78291D01*
X52723Y78208D01*
X52740Y78123D01*
X52753Y78038D01*
X52762Y77952D01*
X52768Y77866D01*
X52770Y77780D01*
X52770Y74620D01*
X52768Y74534D01*
X52762Y74448D01*
X52753Y74362D01*
X52740Y74277D01*
X52723Y74192D01*
X52703Y74109D01*
X52679Y74026D01*
X52651Y73944D01*
X52620Y73864D01*
X52585Y73785D01*
X52547Y73708D01*
X52505Y73632D01*
X52461Y73558D01*
X52413Y73487D01*
X52362Y73417D01*
X52308Y73350D01*
X52251Y73285D01*
X52191Y73223D01*
X52129Y73163D01*
X52064Y73106D01*
X51997Y73052D01*
X51927Y73001D01*
X51856Y72953D01*
X51782Y72909D01*
X51706Y72867D01*
X51629Y72829D01*
X51550Y72794D01*
X51470Y72763D01*
X51388Y72735D01*
X51305Y72711D01*
X51222Y72691D01*
X51137Y72674D01*
X51052Y72661D01*
X50966Y72652D01*
X50880Y72646D01*
X50794Y72644D01*
X48819Y72644D01*
X56509Y72644D02*
X56509Y79756D01*
X55719Y72644D02*
X57299Y72644D01*
X57299Y79756D02*
X55719Y79756D01*
X60020Y77780D02*
X60020Y74620D01*
X60020Y77780D02*
X60022Y77867D01*
X60028Y77955D01*
X60037Y78042D01*
X60051Y78128D01*
X60068Y78214D01*
X60089Y78298D01*
X60114Y78382D01*
X60143Y78465D01*
X60175Y78546D01*
X60210Y78626D01*
X60249Y78704D01*
X60292Y78781D01*
X60338Y78855D01*
X60387Y78927D01*
X60439Y78997D01*
X60495Y79065D01*
X60553Y79130D01*
X60614Y79193D01*
X60678Y79252D01*
X60745Y79309D01*
X60813Y79363D01*
X60885Y79414D01*
X60958Y79461D01*
X61033Y79506D01*
X61111Y79547D01*
X61190Y79584D01*
X61270Y79618D01*
X61352Y79648D01*
X61435Y79675D01*
X61520Y79698D01*
X61605Y79717D01*
X61691Y79732D01*
X61778Y79744D01*
X61865Y79752D01*
X61952Y79756D01*
X62040Y79756D01*
X62127Y79752D01*
X62214Y79744D01*
X62301Y79732D01*
X62387Y79717D01*
X62472Y79698D01*
X62557Y79675D01*
X62640Y79648D01*
X62722Y79618D01*
X62802Y79584D01*
X62881Y79547D01*
X62959Y79506D01*
X63034Y79461D01*
X63107Y79414D01*
X63179Y79363D01*
X63247Y79309D01*
X63314Y79252D01*
X63378Y79193D01*
X63439Y79130D01*
X63497Y79065D01*
X63553Y78997D01*
X63605Y78927D01*
X63654Y78855D01*
X63700Y78781D01*
X63743Y78704D01*
X63782Y78626D01*
X63817Y78546D01*
X63849Y78465D01*
X63878Y78382D01*
X63903Y78298D01*
X63924Y78214D01*
X63941Y78128D01*
X63955Y78042D01*
X63964Y77955D01*
X63970Y77867D01*
X63972Y77780D01*
X63971Y77780D02*
X63971Y74620D01*
X63972Y74620D02*
X63970Y74533D01*
X63964Y74445D01*
X63955Y74358D01*
X63941Y74272D01*
X63924Y74186D01*
X63903Y74102D01*
X63878Y74018D01*
X63849Y73935D01*
X63817Y73854D01*
X63782Y73774D01*
X63743Y73696D01*
X63700Y73619D01*
X63654Y73545D01*
X63605Y73473D01*
X63553Y73403D01*
X63497Y73335D01*
X63439Y73270D01*
X63378Y73207D01*
X63314Y73148D01*
X63247Y73091D01*
X63179Y73037D01*
X63107Y72986D01*
X63034Y72939D01*
X62959Y72894D01*
X62881Y72853D01*
X62802Y72816D01*
X62722Y72782D01*
X62640Y72752D01*
X62557Y72725D01*
X62472Y72702D01*
X62387Y72683D01*
X62301Y72668D01*
X62214Y72656D01*
X62127Y72648D01*
X62040Y72644D01*
X61952Y72644D01*
X61865Y72648D01*
X61778Y72656D01*
X61691Y72668D01*
X61605Y72683D01*
X61520Y72702D01*
X61435Y72725D01*
X61352Y72752D01*
X61270Y72782D01*
X61190Y72816D01*
X61111Y72853D01*
X61033Y72894D01*
X60958Y72939D01*
X60885Y72986D01*
X60813Y73037D01*
X60745Y73091D01*
X60678Y73148D01*
X60614Y73207D01*
X60553Y73270D01*
X60495Y73335D01*
X60439Y73403D01*
X60387Y73473D01*
X60338Y73545D01*
X60292Y73619D01*
X60249Y73696D01*
X60210Y73774D01*
X60175Y73854D01*
X60143Y73935D01*
X60114Y74018D01*
X60089Y74102D01*
X60068Y74186D01*
X60051Y74272D01*
X60037Y74358D01*
X60028Y74445D01*
X60022Y74533D01*
X60020Y74620D01*
X33274Y54356D02*
X33274Y47244D01*
X37225Y47244D02*
X33274Y54356D01*
X37225Y54356D02*
X37225Y47244D01*
X40630Y47244D02*
X40630Y54356D01*
X42605Y54356D01*
X42692Y54354D01*
X42780Y54348D01*
X42867Y54339D01*
X42953Y54325D01*
X43039Y54308D01*
X43123Y54287D01*
X43207Y54262D01*
X43290Y54233D01*
X43371Y54201D01*
X43451Y54166D01*
X43529Y54127D01*
X43606Y54084D01*
X43680Y54038D01*
X43752Y53989D01*
X43822Y53937D01*
X43890Y53881D01*
X43955Y53823D01*
X44018Y53762D01*
X44077Y53698D01*
X44134Y53631D01*
X44188Y53563D01*
X44239Y53491D01*
X44286Y53418D01*
X44331Y53343D01*
X44372Y53265D01*
X44409Y53186D01*
X44443Y53106D01*
X44473Y53024D01*
X44500Y52941D01*
X44523Y52856D01*
X44542Y52771D01*
X44557Y52685D01*
X44569Y52598D01*
X44577Y52511D01*
X44581Y52424D01*
X44581Y52336D01*
X44577Y52249D01*
X44569Y52162D01*
X44557Y52075D01*
X44542Y51989D01*
X44523Y51904D01*
X44500Y51819D01*
X44473Y51736D01*
X44443Y51654D01*
X44409Y51574D01*
X44372Y51495D01*
X44331Y51417D01*
X44286Y51342D01*
X44239Y51269D01*
X44188Y51197D01*
X44134Y51129D01*
X44077Y51062D01*
X44018Y50998D01*
X43955Y50937D01*
X43890Y50879D01*
X43822Y50823D01*
X43752Y50771D01*
X43680Y50722D01*
X43606Y50676D01*
X43529Y50633D01*
X43451Y50594D01*
X43371Y50559D01*
X43290Y50527D01*
X43207Y50498D01*
X43123Y50473D01*
X43039Y50452D01*
X42953Y50435D01*
X42867Y50421D01*
X42780Y50412D01*
X42692Y50406D01*
X42605Y50404D01*
X42605Y50405D02*
X40630Y50405D01*
X43000Y50405D02*
X44581Y47244D01*
X49589Y47244D02*
X49667Y47246D01*
X49744Y47252D01*
X49821Y47261D01*
X49897Y47274D01*
X49973Y47291D01*
X50048Y47312D01*
X50121Y47336D01*
X50194Y47364D01*
X50265Y47396D01*
X50334Y47431D01*
X50401Y47469D01*
X50467Y47510D01*
X50530Y47555D01*
X50591Y47603D01*
X50650Y47653D01*
X50706Y47707D01*
X50760Y47763D01*
X50810Y47822D01*
X50858Y47883D01*
X50903Y47946D01*
X50944Y48012D01*
X50982Y48079D01*
X51017Y48148D01*
X51049Y48219D01*
X51077Y48292D01*
X51101Y48365D01*
X51122Y48440D01*
X51139Y48516D01*
X51152Y48592D01*
X51161Y48669D01*
X51167Y48746D01*
X51169Y48824D01*
X49589Y47244D02*
X49474Y47246D01*
X49360Y47252D01*
X49246Y47262D01*
X49132Y47275D01*
X49019Y47293D01*
X48906Y47315D01*
X48794Y47340D01*
X48684Y47369D01*
X48574Y47402D01*
X48465Y47439D01*
X48358Y47479D01*
X48252Y47523D01*
X48148Y47571D01*
X48045Y47622D01*
X47945Y47677D01*
X47846Y47735D01*
X47749Y47797D01*
X47655Y47861D01*
X47562Y47929D01*
X47472Y48001D01*
X47385Y48075D01*
X47300Y48152D01*
X47218Y48232D01*
X47417Y52776D02*
X47419Y52854D01*
X47425Y52931D01*
X47434Y53008D01*
X47447Y53084D01*
X47464Y53160D01*
X47485Y53235D01*
X47509Y53308D01*
X47537Y53381D01*
X47569Y53452D01*
X47604Y53521D01*
X47642Y53588D01*
X47683Y53654D01*
X47728Y53717D01*
X47776Y53778D01*
X47826Y53837D01*
X47880Y53893D01*
X47936Y53947D01*
X47995Y53997D01*
X48056Y54045D01*
X48119Y54090D01*
X48185Y54131D01*
X48252Y54169D01*
X48321Y54204D01*
X48392Y54236D01*
X48465Y54264D01*
X48538Y54288D01*
X48613Y54309D01*
X48689Y54326D01*
X48765Y54339D01*
X48842Y54348D01*
X48920Y54354D01*
X48997Y54356D01*
X48996Y54356D02*
X49102Y54354D01*
X49208Y54348D01*
X49313Y54339D01*
X49418Y54326D01*
X49523Y54309D01*
X49627Y54288D01*
X49730Y54264D01*
X49832Y54236D01*
X49933Y54204D01*
X50033Y54169D01*
X50131Y54130D01*
X50229Y54087D01*
X50324Y54042D01*
X50418Y53993D01*
X50510Y53940D01*
X50600Y53884D01*
X50688Y53825D01*
X50774Y53763D01*
X48206Y51393D02*
X48139Y51435D01*
X48074Y51480D01*
X48011Y51529D01*
X47950Y51580D01*
X47893Y51635D01*
X47838Y51692D01*
X47785Y51752D01*
X47736Y51814D01*
X47690Y51879D01*
X47648Y51945D01*
X47608Y52014D01*
X47572Y52085D01*
X47540Y52158D01*
X47511Y52232D01*
X47486Y52307D01*
X47465Y52383D01*
X47447Y52461D01*
X47434Y52539D01*
X47424Y52618D01*
X47418Y52697D01*
X47416Y52776D01*
X50380Y50207D02*
X50447Y50165D01*
X50512Y50120D01*
X50575Y50071D01*
X50636Y50020D01*
X50693Y49965D01*
X50748Y49908D01*
X50801Y49848D01*
X50850Y49786D01*
X50896Y49721D01*
X50938Y49655D01*
X50978Y49586D01*
X51014Y49515D01*
X51046Y49442D01*
X51075Y49368D01*
X51100Y49293D01*
X51121Y49217D01*
X51139Y49139D01*
X51152Y49061D01*
X51162Y48982D01*
X51168Y48903D01*
X51170Y48824D01*
X50379Y50207D02*
X48206Y51393D01*
X55366Y54356D02*
X55366Y47244D01*
X53391Y54356D02*
X57342Y54356D01*
X84647Y143905D02*
X86623Y143905D01*
X86623Y143906D02*
X86710Y143904D01*
X86798Y143898D01*
X86885Y143889D01*
X86971Y143875D01*
X87057Y143858D01*
X87141Y143837D01*
X87225Y143812D01*
X87308Y143783D01*
X87389Y143751D01*
X87469Y143716D01*
X87547Y143677D01*
X87624Y143634D01*
X87698Y143588D01*
X87770Y143539D01*
X87840Y143487D01*
X87908Y143431D01*
X87973Y143373D01*
X88036Y143312D01*
X88095Y143248D01*
X88152Y143181D01*
X88206Y143113D01*
X88257Y143041D01*
X88304Y142968D01*
X88349Y142893D01*
X88390Y142815D01*
X88427Y142736D01*
X88461Y142656D01*
X88491Y142574D01*
X88518Y142491D01*
X88541Y142406D01*
X88560Y142321D01*
X88575Y142235D01*
X88587Y142148D01*
X88595Y142061D01*
X88599Y141974D01*
X88599Y141886D01*
X88595Y141799D01*
X88587Y141712D01*
X88575Y141625D01*
X88560Y141539D01*
X88541Y141454D01*
X88518Y141369D01*
X88491Y141286D01*
X88461Y141204D01*
X88427Y141124D01*
X88390Y141045D01*
X88349Y140967D01*
X88304Y140892D01*
X88257Y140819D01*
X88206Y140747D01*
X88152Y140679D01*
X88095Y140612D01*
X88036Y140548D01*
X87973Y140487D01*
X87908Y140429D01*
X87840Y140373D01*
X87770Y140321D01*
X87698Y140272D01*
X87624Y140226D01*
X87547Y140183D01*
X87469Y140144D01*
X87389Y140109D01*
X87308Y140077D01*
X87225Y140048D01*
X87141Y140023D01*
X87057Y140002D01*
X86971Y139985D01*
X86885Y139971D01*
X86798Y139962D01*
X86710Y139956D01*
X86623Y139954D01*
X84647Y139954D01*
X84647Y147066D01*
X86623Y147066D01*
X86702Y147064D01*
X86780Y147058D01*
X86858Y147048D01*
X86936Y147035D01*
X87013Y147017D01*
X87089Y146996D01*
X87163Y146971D01*
X87237Y146942D01*
X87309Y146910D01*
X87379Y146874D01*
X87447Y146834D01*
X87513Y146791D01*
X87577Y146745D01*
X87639Y146696D01*
X87698Y146644D01*
X87754Y146589D01*
X87808Y146531D01*
X87858Y146471D01*
X87906Y146408D01*
X87950Y146343D01*
X87991Y146276D01*
X88029Y146207D01*
X88063Y146136D01*
X88094Y146063D01*
X88121Y145989D01*
X88144Y145914D01*
X88163Y145838D01*
X88179Y145760D01*
X88191Y145682D01*
X88199Y145604D01*
X88203Y145525D01*
X88203Y145447D01*
X88199Y145368D01*
X88191Y145290D01*
X88179Y145212D01*
X88163Y145134D01*
X88144Y145058D01*
X88121Y144983D01*
X88094Y144909D01*
X88063Y144836D01*
X88029Y144765D01*
X87991Y144696D01*
X87950Y144629D01*
X87906Y144564D01*
X87858Y144501D01*
X87808Y144441D01*
X87754Y144383D01*
X87698Y144328D01*
X87639Y144276D01*
X87577Y144227D01*
X87513Y144181D01*
X87447Y144138D01*
X87379Y144098D01*
X87309Y144062D01*
X87237Y144030D01*
X87163Y144001D01*
X87089Y143976D01*
X87013Y143955D01*
X86936Y143937D01*
X86858Y143924D01*
X86780Y143914D01*
X86702Y143908D01*
X86623Y143906D01*
X91183Y145090D02*
X91183Y141930D01*
X91183Y145090D02*
X91185Y145177D01*
X91191Y145265D01*
X91200Y145352D01*
X91214Y145438D01*
X91231Y145524D01*
X91252Y145608D01*
X91277Y145692D01*
X91306Y145775D01*
X91338Y145856D01*
X91373Y145936D01*
X91412Y146014D01*
X91455Y146091D01*
X91501Y146165D01*
X91550Y146237D01*
X91602Y146307D01*
X91658Y146375D01*
X91716Y146440D01*
X91777Y146503D01*
X91841Y146562D01*
X91908Y146619D01*
X91976Y146673D01*
X92048Y146724D01*
X92121Y146771D01*
X92196Y146816D01*
X92274Y146857D01*
X92353Y146894D01*
X92433Y146928D01*
X92515Y146958D01*
X92598Y146985D01*
X92683Y147008D01*
X92768Y147027D01*
X92854Y147042D01*
X92941Y147054D01*
X93028Y147062D01*
X93115Y147066D01*
X93203Y147066D01*
X93290Y147062D01*
X93377Y147054D01*
X93464Y147042D01*
X93550Y147027D01*
X93635Y147008D01*
X93720Y146985D01*
X93803Y146958D01*
X93885Y146928D01*
X93965Y146894D01*
X94044Y146857D01*
X94122Y146816D01*
X94197Y146771D01*
X94270Y146724D01*
X94342Y146673D01*
X94410Y146619D01*
X94477Y146562D01*
X94541Y146503D01*
X94602Y146440D01*
X94660Y146375D01*
X94716Y146307D01*
X94768Y146237D01*
X94817Y146165D01*
X94863Y146091D01*
X94906Y146014D01*
X94945Y145936D01*
X94980Y145856D01*
X95012Y145775D01*
X95041Y145692D01*
X95066Y145608D01*
X95087Y145524D01*
X95104Y145438D01*
X95118Y145352D01*
X95127Y145265D01*
X95133Y145177D01*
X95135Y145090D01*
X95134Y145090D02*
X95134Y141930D01*
X95135Y141930D02*
X95133Y141843D01*
X95127Y141755D01*
X95118Y141668D01*
X95104Y141582D01*
X95087Y141496D01*
X95066Y141412D01*
X95041Y141328D01*
X95012Y141245D01*
X94980Y141164D01*
X94945Y141084D01*
X94906Y141006D01*
X94863Y140929D01*
X94817Y140855D01*
X94768Y140783D01*
X94716Y140713D01*
X94660Y140645D01*
X94602Y140580D01*
X94541Y140517D01*
X94477Y140458D01*
X94410Y140401D01*
X94342Y140347D01*
X94270Y140296D01*
X94197Y140249D01*
X94122Y140204D01*
X94044Y140163D01*
X93965Y140126D01*
X93885Y140092D01*
X93803Y140062D01*
X93720Y140035D01*
X93635Y140012D01*
X93550Y139993D01*
X93464Y139978D01*
X93377Y139966D01*
X93290Y139958D01*
X93203Y139954D01*
X93115Y139954D01*
X93028Y139958D01*
X92941Y139966D01*
X92854Y139978D01*
X92768Y139993D01*
X92683Y140012D01*
X92598Y140035D01*
X92515Y140062D01*
X92433Y140092D01*
X92353Y140126D01*
X92274Y140163D01*
X92196Y140204D01*
X92121Y140249D01*
X92048Y140296D01*
X91976Y140347D01*
X91908Y140401D01*
X91841Y140458D01*
X91777Y140517D01*
X91716Y140580D01*
X91658Y140645D01*
X91602Y140713D01*
X91550Y140783D01*
X91501Y140855D01*
X91455Y140929D01*
X91412Y141006D01*
X91373Y141084D01*
X91338Y141164D01*
X91306Y141245D01*
X91277Y141328D01*
X91252Y141412D01*
X91231Y141496D01*
X91214Y141582D01*
X91200Y141668D01*
X91191Y141755D01*
X91185Y141843D01*
X91183Y141930D01*
X98041Y141930D02*
X98041Y145090D01*
X98043Y145177D01*
X98049Y145265D01*
X98058Y145352D01*
X98072Y145438D01*
X98089Y145524D01*
X98110Y145608D01*
X98135Y145692D01*
X98164Y145775D01*
X98196Y145856D01*
X98231Y145936D01*
X98270Y146014D01*
X98313Y146091D01*
X98359Y146165D01*
X98408Y146237D01*
X98460Y146307D01*
X98516Y146375D01*
X98574Y146440D01*
X98635Y146503D01*
X98699Y146562D01*
X98766Y146619D01*
X98834Y146673D01*
X98906Y146724D01*
X98979Y146771D01*
X99054Y146816D01*
X99132Y146857D01*
X99211Y146894D01*
X99291Y146928D01*
X99373Y146958D01*
X99456Y146985D01*
X99541Y147008D01*
X99626Y147027D01*
X99712Y147042D01*
X99799Y147054D01*
X99886Y147062D01*
X99973Y147066D01*
X100061Y147066D01*
X100148Y147062D01*
X100235Y147054D01*
X100322Y147042D01*
X100408Y147027D01*
X100493Y147008D01*
X100578Y146985D01*
X100661Y146958D01*
X100743Y146928D01*
X100823Y146894D01*
X100902Y146857D01*
X100980Y146816D01*
X101055Y146771D01*
X101128Y146724D01*
X101200Y146673D01*
X101268Y146619D01*
X101335Y146562D01*
X101399Y146503D01*
X101460Y146440D01*
X101518Y146375D01*
X101574Y146307D01*
X101626Y146237D01*
X101675Y146165D01*
X101721Y146091D01*
X101764Y146014D01*
X101803Y145936D01*
X101838Y145856D01*
X101870Y145775D01*
X101899Y145692D01*
X101924Y145608D01*
X101945Y145524D01*
X101962Y145438D01*
X101976Y145352D01*
X101985Y145265D01*
X101991Y145177D01*
X101993Y145090D01*
X101992Y145090D02*
X101992Y141930D01*
X101993Y141930D02*
X101991Y141843D01*
X101985Y141755D01*
X101976Y141668D01*
X101962Y141582D01*
X101945Y141496D01*
X101924Y141412D01*
X101899Y141328D01*
X101870Y141245D01*
X101838Y141164D01*
X101803Y141084D01*
X101764Y141006D01*
X101721Y140929D01*
X101675Y140855D01*
X101626Y140783D01*
X101574Y140713D01*
X101518Y140645D01*
X101460Y140580D01*
X101399Y140517D01*
X101335Y140458D01*
X101268Y140401D01*
X101200Y140347D01*
X101128Y140296D01*
X101055Y140249D01*
X100980Y140204D01*
X100902Y140163D01*
X100823Y140126D01*
X100743Y140092D01*
X100661Y140062D01*
X100578Y140035D01*
X100493Y140012D01*
X100408Y139993D01*
X100322Y139978D01*
X100235Y139966D01*
X100148Y139958D01*
X100061Y139954D01*
X99973Y139954D01*
X99886Y139958D01*
X99799Y139966D01*
X99712Y139978D01*
X99626Y139993D01*
X99541Y140012D01*
X99456Y140035D01*
X99373Y140062D01*
X99291Y140092D01*
X99211Y140126D01*
X99132Y140163D01*
X99054Y140204D01*
X98979Y140249D01*
X98906Y140296D01*
X98834Y140347D01*
X98766Y140401D01*
X98699Y140458D01*
X98635Y140517D01*
X98574Y140580D01*
X98516Y140645D01*
X98460Y140713D01*
X98408Y140783D01*
X98359Y140855D01*
X98313Y140929D01*
X98270Y141006D01*
X98231Y141084D01*
X98196Y141164D01*
X98164Y141245D01*
X98135Y141328D01*
X98110Y141412D01*
X98089Y141496D01*
X98072Y141582D01*
X98058Y141668D01*
X98049Y141755D01*
X98043Y141843D01*
X98041Y141930D01*
X106417Y139954D02*
X106417Y147066D01*
X104442Y147066D02*
X108393Y147066D01*
X83490Y36576D02*
X83490Y29464D01*
X83490Y36576D02*
X85466Y36576D01*
X85553Y36574D01*
X85641Y36568D01*
X85728Y36559D01*
X85814Y36545D01*
X85900Y36528D01*
X85984Y36507D01*
X86068Y36482D01*
X86151Y36453D01*
X86232Y36421D01*
X86312Y36386D01*
X86390Y36347D01*
X86467Y36304D01*
X86541Y36258D01*
X86613Y36209D01*
X86683Y36157D01*
X86751Y36101D01*
X86816Y36043D01*
X86879Y35982D01*
X86938Y35918D01*
X86995Y35851D01*
X87049Y35783D01*
X87100Y35711D01*
X87147Y35638D01*
X87192Y35563D01*
X87233Y35485D01*
X87270Y35406D01*
X87304Y35326D01*
X87334Y35244D01*
X87361Y35161D01*
X87384Y35076D01*
X87403Y34991D01*
X87418Y34905D01*
X87430Y34818D01*
X87438Y34731D01*
X87442Y34644D01*
X87442Y34556D01*
X87438Y34469D01*
X87430Y34382D01*
X87418Y34295D01*
X87403Y34209D01*
X87384Y34124D01*
X87361Y34039D01*
X87334Y33956D01*
X87304Y33874D01*
X87270Y33794D01*
X87233Y33715D01*
X87192Y33637D01*
X87147Y33562D01*
X87100Y33489D01*
X87049Y33417D01*
X86995Y33349D01*
X86938Y33282D01*
X86879Y33218D01*
X86816Y33157D01*
X86751Y33099D01*
X86683Y33043D01*
X86613Y32991D01*
X86541Y32942D01*
X86467Y32896D01*
X86390Y32853D01*
X86312Y32814D01*
X86232Y32779D01*
X86151Y32747D01*
X86068Y32718D01*
X85984Y32693D01*
X85900Y32672D01*
X85814Y32655D01*
X85728Y32641D01*
X85641Y32632D01*
X85553Y32626D01*
X85466Y32624D01*
X85466Y32625D02*
X83490Y32625D01*
X85861Y32625D02*
X87441Y29464D01*
X90549Y29464D02*
X93710Y29464D01*
X90549Y29464D02*
X90549Y36576D01*
X93710Y36576D01*
X92920Y33415D02*
X90549Y33415D01*
X98393Y29464D02*
X98471Y29466D01*
X98548Y29472D01*
X98625Y29481D01*
X98701Y29494D01*
X98777Y29511D01*
X98852Y29532D01*
X98925Y29556D01*
X98998Y29584D01*
X99069Y29616D01*
X99138Y29651D01*
X99205Y29689D01*
X99271Y29730D01*
X99334Y29775D01*
X99395Y29823D01*
X99454Y29873D01*
X99510Y29927D01*
X99564Y29983D01*
X99614Y30042D01*
X99662Y30103D01*
X99707Y30166D01*
X99748Y30232D01*
X99786Y30299D01*
X99821Y30368D01*
X99853Y30439D01*
X99881Y30512D01*
X99905Y30585D01*
X99926Y30660D01*
X99943Y30736D01*
X99956Y30812D01*
X99965Y30889D01*
X99971Y30966D01*
X99973Y31044D01*
X98393Y29464D02*
X98278Y29466D01*
X98164Y29472D01*
X98050Y29482D01*
X97936Y29495D01*
X97823Y29513D01*
X97710Y29535D01*
X97598Y29560D01*
X97488Y29589D01*
X97378Y29622D01*
X97269Y29659D01*
X97162Y29699D01*
X97056Y29743D01*
X96952Y29791D01*
X96849Y29842D01*
X96749Y29897D01*
X96650Y29955D01*
X96553Y30017D01*
X96459Y30081D01*
X96366Y30149D01*
X96276Y30221D01*
X96189Y30295D01*
X96104Y30372D01*
X96022Y30452D01*
X96221Y34996D02*
X96223Y35074D01*
X96229Y35151D01*
X96238Y35228D01*
X96251Y35304D01*
X96268Y35380D01*
X96289Y35455D01*
X96313Y35528D01*
X96341Y35601D01*
X96373Y35672D01*
X96408Y35741D01*
X96446Y35808D01*
X96487Y35874D01*
X96532Y35937D01*
X96580Y35998D01*
X96630Y36057D01*
X96684Y36113D01*
X96740Y36167D01*
X96799Y36217D01*
X96860Y36265D01*
X96923Y36310D01*
X96989Y36351D01*
X97056Y36389D01*
X97125Y36424D01*
X97196Y36456D01*
X97269Y36484D01*
X97342Y36508D01*
X97417Y36529D01*
X97493Y36546D01*
X97569Y36559D01*
X97646Y36568D01*
X97724Y36574D01*
X97801Y36576D01*
X97907Y36574D01*
X98013Y36568D01*
X98118Y36559D01*
X98223Y36546D01*
X98328Y36529D01*
X98432Y36508D01*
X98535Y36484D01*
X98637Y36456D01*
X98738Y36424D01*
X98838Y36389D01*
X98936Y36350D01*
X99034Y36307D01*
X99129Y36262D01*
X99223Y36213D01*
X99315Y36160D01*
X99405Y36104D01*
X99493Y36045D01*
X99579Y35983D01*
X97010Y33613D02*
X96943Y33655D01*
X96878Y33700D01*
X96815Y33749D01*
X96754Y33800D01*
X96697Y33855D01*
X96642Y33912D01*
X96589Y33972D01*
X96540Y34034D01*
X96494Y34099D01*
X96452Y34165D01*
X96412Y34234D01*
X96376Y34305D01*
X96344Y34378D01*
X96315Y34452D01*
X96290Y34527D01*
X96269Y34603D01*
X96251Y34681D01*
X96238Y34759D01*
X96228Y34838D01*
X96222Y34917D01*
X96220Y34996D01*
X99184Y32427D02*
X99251Y32385D01*
X99316Y32340D01*
X99379Y32291D01*
X99440Y32240D01*
X99497Y32185D01*
X99552Y32128D01*
X99605Y32068D01*
X99654Y32006D01*
X99700Y31941D01*
X99742Y31875D01*
X99782Y31806D01*
X99818Y31735D01*
X99850Y31662D01*
X99879Y31588D01*
X99904Y31513D01*
X99925Y31437D01*
X99943Y31359D01*
X99956Y31281D01*
X99966Y31202D01*
X99972Y31123D01*
X99974Y31044D01*
X99184Y32427D02*
X97011Y33613D01*
X102893Y29464D02*
X106054Y29464D01*
X102893Y29464D02*
X102893Y36576D01*
X106054Y36576D01*
X105264Y33415D02*
X102893Y33415D01*
X110114Y36576D02*
X110114Y29464D01*
X108139Y36576D02*
X112090Y36576D01*
X318048Y59944D02*
X319629Y59944D01*
X318048Y59944D02*
X317970Y59946D01*
X317893Y59952D01*
X317816Y59961D01*
X317740Y59974D01*
X317664Y59991D01*
X317589Y60012D01*
X317516Y60036D01*
X317443Y60064D01*
X317372Y60096D01*
X317303Y60131D01*
X317236Y60169D01*
X317170Y60210D01*
X317107Y60255D01*
X317046Y60303D01*
X316987Y60353D01*
X316931Y60407D01*
X316877Y60463D01*
X316827Y60522D01*
X316779Y60583D01*
X316734Y60646D01*
X316693Y60712D01*
X316655Y60779D01*
X316620Y60848D01*
X316588Y60919D01*
X316560Y60992D01*
X316536Y61065D01*
X316515Y61140D01*
X316498Y61216D01*
X316485Y61292D01*
X316476Y61369D01*
X316470Y61446D01*
X316468Y61524D01*
X316468Y65476D01*
X316470Y65554D01*
X316476Y65631D01*
X316485Y65708D01*
X316498Y65784D01*
X316515Y65860D01*
X316536Y65935D01*
X316560Y66008D01*
X316588Y66081D01*
X316620Y66152D01*
X316655Y66221D01*
X316693Y66288D01*
X316734Y66354D01*
X316779Y66417D01*
X316827Y66478D01*
X316877Y66537D01*
X316931Y66593D01*
X316987Y66647D01*
X317046Y66697D01*
X317107Y66745D01*
X317170Y66790D01*
X317236Y66831D01*
X317303Y66869D01*
X317372Y66904D01*
X317443Y66936D01*
X317516Y66964D01*
X317589Y66988D01*
X317664Y67009D01*
X317740Y67026D01*
X317816Y67039D01*
X317893Y67048D01*
X317970Y67054D01*
X318048Y67056D01*
X319629Y67056D01*
X322201Y65476D02*
X324177Y67056D01*
X324177Y59944D01*
X326152Y59944D02*
X322201Y59944D01*
X54580Y25654D02*
X52999Y25654D01*
X52921Y25656D01*
X52844Y25662D01*
X52767Y25671D01*
X52691Y25684D01*
X52615Y25701D01*
X52540Y25722D01*
X52467Y25746D01*
X52394Y25774D01*
X52323Y25806D01*
X52254Y25841D01*
X52187Y25879D01*
X52121Y25920D01*
X52058Y25965D01*
X51997Y26013D01*
X51938Y26063D01*
X51882Y26117D01*
X51828Y26173D01*
X51778Y26232D01*
X51730Y26293D01*
X51685Y26356D01*
X51644Y26422D01*
X51606Y26489D01*
X51571Y26558D01*
X51539Y26629D01*
X51511Y26702D01*
X51487Y26775D01*
X51466Y26850D01*
X51449Y26926D01*
X51436Y27002D01*
X51427Y27079D01*
X51421Y27156D01*
X51419Y27234D01*
X51419Y31186D01*
X51421Y31264D01*
X51427Y31341D01*
X51436Y31418D01*
X51449Y31494D01*
X51466Y31570D01*
X51487Y31645D01*
X51511Y31718D01*
X51539Y31791D01*
X51571Y31862D01*
X51606Y31931D01*
X51644Y31998D01*
X51685Y32064D01*
X51730Y32127D01*
X51778Y32188D01*
X51828Y32247D01*
X51882Y32303D01*
X51938Y32357D01*
X51997Y32407D01*
X52058Y32455D01*
X52121Y32500D01*
X52187Y32541D01*
X52254Y32579D01*
X52323Y32614D01*
X52394Y32646D01*
X52467Y32674D01*
X52540Y32698D01*
X52615Y32719D01*
X52691Y32736D01*
X52767Y32749D01*
X52844Y32758D01*
X52921Y32764D01*
X52999Y32766D01*
X54580Y32766D01*
X57152Y31186D02*
X59128Y32766D01*
X59128Y25654D01*
X61103Y25654D02*
X57152Y25654D01*
X64010Y29210D02*
X64012Y29358D01*
X64017Y29505D01*
X64027Y29653D01*
X64040Y29800D01*
X64056Y29947D01*
X64077Y30093D01*
X64101Y30239D01*
X64129Y30384D01*
X64160Y30528D01*
X64195Y30671D01*
X64234Y30814D01*
X64276Y30955D01*
X64322Y31096D01*
X64371Y31235D01*
X64424Y31373D01*
X64480Y31510D01*
X64540Y31645D01*
X64603Y31778D01*
X64629Y31849D01*
X64659Y31918D01*
X64693Y31986D01*
X64730Y32052D01*
X64770Y32116D01*
X64814Y32178D01*
X64860Y32237D01*
X64910Y32294D01*
X64963Y32348D01*
X65018Y32400D01*
X65076Y32448D01*
X65136Y32494D01*
X65199Y32536D01*
X65264Y32575D01*
X65330Y32611D01*
X65399Y32643D01*
X65468Y32671D01*
X65540Y32696D01*
X65612Y32717D01*
X65686Y32735D01*
X65760Y32748D01*
X65835Y32758D01*
X65910Y32764D01*
X65986Y32766D01*
X66062Y32764D01*
X66137Y32758D01*
X66212Y32748D01*
X66286Y32735D01*
X66360Y32717D01*
X66432Y32696D01*
X66503Y32671D01*
X66573Y32643D01*
X66642Y32611D01*
X66708Y32575D01*
X66773Y32536D01*
X66836Y32494D01*
X66896Y32448D01*
X66954Y32400D01*
X67009Y32348D01*
X67062Y32294D01*
X67112Y32237D01*
X67158Y32178D01*
X67202Y32116D01*
X67242Y32052D01*
X67279Y31986D01*
X67313Y31918D01*
X67343Y31849D01*
X67369Y31778D01*
X67368Y31778D02*
X67431Y31645D01*
X67491Y31510D01*
X67547Y31373D01*
X67600Y31235D01*
X67649Y31096D01*
X67695Y30955D01*
X67737Y30814D01*
X67776Y30671D01*
X67811Y30528D01*
X67842Y30384D01*
X67870Y30239D01*
X67894Y30093D01*
X67915Y29947D01*
X67931Y29800D01*
X67944Y29653D01*
X67954Y29505D01*
X67959Y29358D01*
X67961Y29210D01*
X64010Y29210D02*
X64012Y29062D01*
X64017Y28915D01*
X64027Y28767D01*
X64040Y28620D01*
X64056Y28473D01*
X64077Y28327D01*
X64101Y28182D01*
X64129Y28036D01*
X64160Y27892D01*
X64195Y27749D01*
X64234Y27606D01*
X64276Y27465D01*
X64322Y27324D01*
X64371Y27185D01*
X64424Y27047D01*
X64480Y26910D01*
X64540Y26775D01*
X64603Y26642D01*
X64629Y26571D01*
X64659Y26502D01*
X64693Y26434D01*
X64730Y26368D01*
X64770Y26304D01*
X64814Y26242D01*
X64860Y26183D01*
X64910Y26126D01*
X64963Y26072D01*
X65018Y26020D01*
X65076Y25972D01*
X65136Y25926D01*
X65199Y25884D01*
X65264Y25845D01*
X65330Y25809D01*
X65399Y25777D01*
X65469Y25749D01*
X65540Y25724D01*
X65612Y25703D01*
X65686Y25685D01*
X65760Y25672D01*
X65835Y25662D01*
X65910Y25656D01*
X65986Y25654D01*
X67368Y26642D02*
X67431Y26775D01*
X67491Y26910D01*
X67547Y27047D01*
X67600Y27185D01*
X67649Y27324D01*
X67695Y27465D01*
X67737Y27606D01*
X67776Y27749D01*
X67811Y27892D01*
X67842Y28036D01*
X67870Y28182D01*
X67894Y28327D01*
X67915Y28473D01*
X67931Y28620D01*
X67944Y28767D01*
X67954Y28915D01*
X67959Y29062D01*
X67961Y29210D01*
X67369Y26642D02*
X67343Y26571D01*
X67313Y26502D01*
X67279Y26434D01*
X67242Y26368D01*
X67202Y26304D01*
X67158Y26242D01*
X67112Y26183D01*
X67062Y26126D01*
X67009Y26072D01*
X66954Y26020D01*
X66896Y25972D01*
X66836Y25926D01*
X66773Y25884D01*
X66708Y25845D01*
X66642Y25809D01*
X66573Y25777D01*
X66503Y25749D01*
X66432Y25724D01*
X66360Y25703D01*
X66286Y25685D01*
X66212Y25672D01*
X66137Y25662D01*
X66062Y25656D01*
X65986Y25654D01*
X64405Y27234D02*
X67566Y31186D01*
X314238Y127254D02*
X315819Y127254D01*
X314238Y127254D02*
X314160Y127256D01*
X314083Y127262D01*
X314006Y127271D01*
X313930Y127284D01*
X313854Y127301D01*
X313779Y127322D01*
X313706Y127346D01*
X313633Y127374D01*
X313562Y127406D01*
X313493Y127441D01*
X313426Y127479D01*
X313360Y127520D01*
X313297Y127565D01*
X313236Y127613D01*
X313177Y127663D01*
X313121Y127717D01*
X313067Y127773D01*
X313017Y127832D01*
X312969Y127893D01*
X312924Y127956D01*
X312883Y128022D01*
X312845Y128089D01*
X312810Y128158D01*
X312778Y128229D01*
X312750Y128302D01*
X312726Y128375D01*
X312705Y128450D01*
X312688Y128526D01*
X312675Y128602D01*
X312666Y128679D01*
X312660Y128756D01*
X312658Y128834D01*
X312658Y132786D01*
X312660Y132864D01*
X312666Y132941D01*
X312675Y133018D01*
X312688Y133094D01*
X312705Y133170D01*
X312726Y133245D01*
X312750Y133318D01*
X312778Y133391D01*
X312810Y133462D01*
X312845Y133531D01*
X312883Y133598D01*
X312924Y133664D01*
X312969Y133727D01*
X313017Y133788D01*
X313067Y133847D01*
X313121Y133903D01*
X313177Y133957D01*
X313236Y134007D01*
X313297Y134055D01*
X313360Y134100D01*
X313426Y134141D01*
X313493Y134179D01*
X313562Y134214D01*
X313633Y134246D01*
X313706Y134274D01*
X313779Y134298D01*
X313854Y134319D01*
X313930Y134336D01*
X314006Y134349D01*
X314083Y134358D01*
X314160Y134364D01*
X314238Y134366D01*
X315819Y134366D01*
X320564Y134366D02*
X320646Y134364D01*
X320728Y134358D01*
X320810Y134349D01*
X320891Y134336D01*
X320971Y134319D01*
X321051Y134298D01*
X321129Y134274D01*
X321206Y134246D01*
X321282Y134215D01*
X321357Y134180D01*
X321429Y134141D01*
X321500Y134100D01*
X321569Y134055D01*
X321635Y134007D01*
X321700Y133956D01*
X321762Y133902D01*
X321821Y133845D01*
X321878Y133786D01*
X321932Y133724D01*
X321983Y133659D01*
X322031Y133593D01*
X322076Y133524D01*
X322117Y133453D01*
X322156Y133381D01*
X322191Y133306D01*
X322222Y133230D01*
X322250Y133153D01*
X322274Y133075D01*
X322295Y132995D01*
X322312Y132915D01*
X322325Y132834D01*
X322334Y132752D01*
X322340Y132670D01*
X322342Y132588D01*
X320564Y134366D02*
X320471Y134364D01*
X320379Y134358D01*
X320287Y134349D01*
X320195Y134336D01*
X320104Y134319D01*
X320014Y134299D01*
X319924Y134275D01*
X319836Y134247D01*
X319748Y134215D01*
X319663Y134181D01*
X319578Y134142D01*
X319496Y134101D01*
X319415Y134056D01*
X319335Y134007D01*
X319258Y133956D01*
X319183Y133902D01*
X319111Y133844D01*
X319041Y133784D01*
X318973Y133720D01*
X318908Y133655D01*
X318845Y133586D01*
X318786Y133515D01*
X318729Y133442D01*
X318675Y133366D01*
X318625Y133289D01*
X318577Y133209D01*
X318533Y133128D01*
X318493Y133044D01*
X318455Y132960D01*
X318421Y132873D01*
X318391Y132786D01*
X321749Y131205D02*
X321810Y131266D01*
X321868Y131329D01*
X321923Y131395D01*
X321976Y131463D01*
X322025Y131534D01*
X322070Y131606D01*
X322113Y131681D01*
X322152Y131757D01*
X322188Y131836D01*
X322220Y131915D01*
X322248Y131996D01*
X322273Y132079D01*
X322294Y132162D01*
X322311Y132246D01*
X322325Y132331D01*
X322334Y132416D01*
X322340Y132502D01*
X322342Y132588D01*
X321750Y131205D02*
X318391Y127254D01*
X322342Y127254D01*
X131669Y99314D02*
X130088Y99314D01*
X130010Y99316D01*
X129933Y99322D01*
X129856Y99331D01*
X129780Y99344D01*
X129704Y99361D01*
X129629Y99382D01*
X129556Y99406D01*
X129483Y99434D01*
X129412Y99466D01*
X129343Y99501D01*
X129276Y99539D01*
X129210Y99580D01*
X129147Y99625D01*
X129086Y99673D01*
X129027Y99723D01*
X128971Y99777D01*
X128917Y99833D01*
X128867Y99892D01*
X128819Y99953D01*
X128774Y100016D01*
X128733Y100082D01*
X128695Y100149D01*
X128660Y100218D01*
X128628Y100289D01*
X128600Y100362D01*
X128576Y100435D01*
X128555Y100510D01*
X128538Y100586D01*
X128525Y100662D01*
X128516Y100739D01*
X128510Y100816D01*
X128508Y100894D01*
X128508Y104846D01*
X128510Y104924D01*
X128516Y105001D01*
X128525Y105078D01*
X128538Y105154D01*
X128555Y105230D01*
X128576Y105305D01*
X128600Y105378D01*
X128628Y105451D01*
X128660Y105522D01*
X128695Y105591D01*
X128733Y105658D01*
X128774Y105724D01*
X128819Y105787D01*
X128867Y105848D01*
X128917Y105907D01*
X128971Y105963D01*
X129027Y106017D01*
X129086Y106067D01*
X129147Y106115D01*
X129210Y106160D01*
X129276Y106201D01*
X129343Y106239D01*
X129412Y106274D01*
X129483Y106306D01*
X129556Y106334D01*
X129629Y106358D01*
X129704Y106379D01*
X129780Y106396D01*
X129856Y106409D01*
X129933Y106418D01*
X130010Y106424D01*
X130088Y106426D01*
X131669Y106426D01*
X134241Y99314D02*
X136217Y99314D01*
X136304Y99316D01*
X136392Y99322D01*
X136479Y99331D01*
X136565Y99345D01*
X136651Y99362D01*
X136735Y99383D01*
X136819Y99408D01*
X136902Y99437D01*
X136983Y99469D01*
X137063Y99504D01*
X137141Y99543D01*
X137218Y99586D01*
X137292Y99632D01*
X137364Y99681D01*
X137434Y99733D01*
X137502Y99789D01*
X137567Y99847D01*
X137630Y99908D01*
X137689Y99972D01*
X137746Y100039D01*
X137800Y100107D01*
X137851Y100179D01*
X137898Y100252D01*
X137943Y100327D01*
X137984Y100405D01*
X138021Y100484D01*
X138055Y100564D01*
X138085Y100646D01*
X138112Y100729D01*
X138135Y100814D01*
X138154Y100899D01*
X138169Y100985D01*
X138181Y101072D01*
X138189Y101159D01*
X138193Y101246D01*
X138193Y101334D01*
X138189Y101421D01*
X138181Y101508D01*
X138169Y101595D01*
X138154Y101681D01*
X138135Y101766D01*
X138112Y101851D01*
X138085Y101934D01*
X138055Y102016D01*
X138021Y102096D01*
X137984Y102175D01*
X137943Y102253D01*
X137898Y102328D01*
X137851Y102401D01*
X137800Y102473D01*
X137746Y102541D01*
X137689Y102608D01*
X137630Y102672D01*
X137567Y102733D01*
X137502Y102791D01*
X137434Y102847D01*
X137364Y102899D01*
X137292Y102948D01*
X137218Y102994D01*
X137141Y103037D01*
X137063Y103076D01*
X136983Y103111D01*
X136902Y103143D01*
X136819Y103172D01*
X136735Y103197D01*
X136651Y103218D01*
X136565Y103235D01*
X136479Y103249D01*
X136392Y103258D01*
X136304Y103264D01*
X136217Y103266D01*
X136612Y106426D02*
X134241Y106426D01*
X136612Y106426D02*
X136691Y106424D01*
X136769Y106418D01*
X136847Y106408D01*
X136925Y106395D01*
X137002Y106377D01*
X137078Y106356D01*
X137152Y106331D01*
X137226Y106302D01*
X137298Y106270D01*
X137368Y106234D01*
X137436Y106194D01*
X137502Y106151D01*
X137566Y106105D01*
X137628Y106056D01*
X137687Y106004D01*
X137743Y105949D01*
X137797Y105891D01*
X137847Y105831D01*
X137895Y105768D01*
X137939Y105703D01*
X137980Y105636D01*
X138018Y105567D01*
X138052Y105496D01*
X138083Y105423D01*
X138110Y105349D01*
X138133Y105274D01*
X138152Y105198D01*
X138168Y105120D01*
X138180Y105042D01*
X138188Y104964D01*
X138192Y104885D01*
X138192Y104807D01*
X138188Y104728D01*
X138180Y104650D01*
X138168Y104572D01*
X138152Y104494D01*
X138133Y104418D01*
X138110Y104343D01*
X138083Y104269D01*
X138052Y104196D01*
X138018Y104125D01*
X137980Y104056D01*
X137939Y103989D01*
X137895Y103924D01*
X137847Y103861D01*
X137797Y103801D01*
X137743Y103743D01*
X137687Y103688D01*
X137628Y103636D01*
X137566Y103587D01*
X137502Y103541D01*
X137436Y103498D01*
X137368Y103458D01*
X137298Y103422D01*
X137226Y103390D01*
X137152Y103361D01*
X137078Y103336D01*
X137002Y103315D01*
X136925Y103297D01*
X136847Y103284D01*
X136769Y103274D01*
X136691Y103268D01*
X136612Y103266D01*
X136612Y103265D02*
X135031Y103265D01*
X264708Y103124D02*
X266289Y103124D01*
X264708Y103124D02*
X264630Y103126D01*
X264553Y103132D01*
X264476Y103141D01*
X264400Y103154D01*
X264324Y103171D01*
X264249Y103192D01*
X264176Y103216D01*
X264103Y103244D01*
X264032Y103276D01*
X263963Y103311D01*
X263896Y103349D01*
X263830Y103390D01*
X263767Y103435D01*
X263706Y103483D01*
X263647Y103533D01*
X263591Y103587D01*
X263537Y103643D01*
X263487Y103702D01*
X263439Y103763D01*
X263394Y103826D01*
X263353Y103892D01*
X263315Y103959D01*
X263280Y104028D01*
X263248Y104099D01*
X263220Y104172D01*
X263196Y104245D01*
X263175Y104320D01*
X263158Y104396D01*
X263145Y104472D01*
X263136Y104549D01*
X263130Y104626D01*
X263128Y104704D01*
X263128Y108656D01*
X263130Y108734D01*
X263136Y108811D01*
X263145Y108888D01*
X263158Y108964D01*
X263175Y109040D01*
X263196Y109115D01*
X263220Y109188D01*
X263248Y109261D01*
X263280Y109332D01*
X263315Y109401D01*
X263353Y109468D01*
X263394Y109534D01*
X263439Y109597D01*
X263487Y109658D01*
X263537Y109717D01*
X263591Y109773D01*
X263647Y109827D01*
X263706Y109877D01*
X263767Y109925D01*
X263830Y109970D01*
X263896Y110011D01*
X263963Y110049D01*
X264032Y110084D01*
X264103Y110116D01*
X264176Y110144D01*
X264249Y110168D01*
X264324Y110189D01*
X264400Y110206D01*
X264476Y110219D01*
X264553Y110228D01*
X264630Y110234D01*
X264708Y110236D01*
X266289Y110236D01*
X270442Y110236D02*
X268861Y104704D01*
X272812Y104704D01*
X271627Y106285D02*
X271627Y103124D01*
X276138Y103124D02*
X277719Y103124D01*
X276138Y103124D02*
X276060Y103126D01*
X275983Y103132D01*
X275906Y103141D01*
X275830Y103154D01*
X275754Y103171D01*
X275679Y103192D01*
X275606Y103216D01*
X275533Y103244D01*
X275462Y103276D01*
X275393Y103311D01*
X275326Y103349D01*
X275260Y103390D01*
X275197Y103435D01*
X275136Y103483D01*
X275077Y103533D01*
X275021Y103587D01*
X274967Y103643D01*
X274917Y103702D01*
X274869Y103763D01*
X274824Y103826D01*
X274783Y103892D01*
X274745Y103959D01*
X274710Y104028D01*
X274678Y104099D01*
X274650Y104172D01*
X274626Y104245D01*
X274605Y104320D01*
X274588Y104396D01*
X274575Y104472D01*
X274566Y104549D01*
X274560Y104626D01*
X274558Y104704D01*
X274558Y108656D01*
X274560Y108734D01*
X274566Y108811D01*
X274575Y108888D01*
X274588Y108964D01*
X274605Y109040D01*
X274626Y109115D01*
X274650Y109188D01*
X274678Y109261D01*
X274710Y109332D01*
X274745Y109401D01*
X274783Y109468D01*
X274824Y109534D01*
X274869Y109597D01*
X274917Y109658D01*
X274967Y109717D01*
X275021Y109773D01*
X275077Y109827D01*
X275136Y109877D01*
X275197Y109925D01*
X275260Y109970D01*
X275326Y110011D01*
X275393Y110049D01*
X275462Y110084D01*
X275533Y110116D01*
X275606Y110144D01*
X275679Y110168D01*
X275754Y110189D01*
X275830Y110206D01*
X275906Y110219D01*
X275983Y110228D01*
X276060Y110234D01*
X276138Y110236D01*
X277719Y110236D01*
X280291Y103124D02*
X282662Y103124D01*
X282740Y103126D01*
X282817Y103132D01*
X282894Y103141D01*
X282970Y103154D01*
X283046Y103171D01*
X283121Y103192D01*
X283194Y103216D01*
X283267Y103244D01*
X283338Y103276D01*
X283407Y103311D01*
X283474Y103349D01*
X283540Y103390D01*
X283603Y103435D01*
X283664Y103483D01*
X283723Y103533D01*
X283779Y103587D01*
X283833Y103643D01*
X283883Y103702D01*
X283931Y103763D01*
X283976Y103826D01*
X284017Y103892D01*
X284055Y103959D01*
X284090Y104028D01*
X284122Y104099D01*
X284150Y104172D01*
X284174Y104245D01*
X284195Y104320D01*
X284212Y104396D01*
X284225Y104472D01*
X284234Y104549D01*
X284240Y104626D01*
X284242Y104704D01*
X284242Y105495D01*
X284240Y105573D01*
X284234Y105650D01*
X284225Y105727D01*
X284212Y105803D01*
X284195Y105879D01*
X284174Y105954D01*
X284150Y106027D01*
X284122Y106100D01*
X284090Y106171D01*
X284055Y106240D01*
X284017Y106307D01*
X283976Y106373D01*
X283931Y106436D01*
X283883Y106497D01*
X283833Y106556D01*
X283779Y106612D01*
X283723Y106666D01*
X283664Y106716D01*
X283603Y106764D01*
X283540Y106809D01*
X283474Y106850D01*
X283407Y106888D01*
X283338Y106923D01*
X283267Y106955D01*
X283194Y106983D01*
X283121Y107007D01*
X283046Y107028D01*
X282970Y107045D01*
X282894Y107058D01*
X282817Y107067D01*
X282740Y107073D01*
X282662Y107075D01*
X280291Y107075D01*
X280291Y110236D01*
X284242Y110236D01*
X12700Y28956D02*
X11077Y27658D01*
X12700Y28956D02*
X12700Y23114D01*
X11077Y23114D02*
X14323Y23114D01*
X188877Y24737D02*
X188879Y24817D01*
X188885Y24896D01*
X188895Y24975D01*
X188908Y25054D01*
X188926Y25131D01*
X188947Y25208D01*
X188972Y25284D01*
X189001Y25358D01*
X189033Y25431D01*
X189069Y25502D01*
X189108Y25571D01*
X189151Y25639D01*
X189196Y25704D01*
X189245Y25767D01*
X189297Y25827D01*
X189352Y25885D01*
X189410Y25940D01*
X189470Y25992D01*
X189533Y26041D01*
X189598Y26086D01*
X189666Y26129D01*
X189735Y26168D01*
X189806Y26204D01*
X189879Y26236D01*
X189953Y26265D01*
X190029Y26290D01*
X190106Y26311D01*
X190183Y26329D01*
X190262Y26342D01*
X190341Y26352D01*
X190420Y26358D01*
X190500Y26360D01*
X190580Y26358D01*
X190659Y26352D01*
X190738Y26342D01*
X190817Y26329D01*
X190894Y26311D01*
X190971Y26290D01*
X191047Y26265D01*
X191121Y26236D01*
X191194Y26204D01*
X191265Y26168D01*
X191334Y26129D01*
X191402Y26086D01*
X191467Y26041D01*
X191530Y25992D01*
X191590Y25940D01*
X191648Y25885D01*
X191703Y25827D01*
X191755Y25767D01*
X191804Y25704D01*
X191849Y25639D01*
X191892Y25571D01*
X191931Y25502D01*
X191967Y25431D01*
X191999Y25358D01*
X192028Y25284D01*
X192053Y25208D01*
X192074Y25131D01*
X192092Y25054D01*
X192105Y24975D01*
X192115Y24896D01*
X192121Y24817D01*
X192123Y24737D01*
X192121Y24657D01*
X192115Y24578D01*
X192105Y24499D01*
X192092Y24420D01*
X192074Y24343D01*
X192053Y24266D01*
X192028Y24190D01*
X191999Y24116D01*
X191967Y24043D01*
X191931Y23972D01*
X191892Y23903D01*
X191849Y23835D01*
X191804Y23770D01*
X191755Y23707D01*
X191703Y23647D01*
X191648Y23589D01*
X191590Y23534D01*
X191530Y23482D01*
X191467Y23433D01*
X191402Y23388D01*
X191334Y23345D01*
X191265Y23306D01*
X191194Y23270D01*
X191121Y23238D01*
X191047Y23209D01*
X190971Y23184D01*
X190894Y23163D01*
X190817Y23145D01*
X190738Y23132D01*
X190659Y23122D01*
X190580Y23116D01*
X190500Y23114D01*
X190420Y23116D01*
X190341Y23122D01*
X190262Y23132D01*
X190183Y23145D01*
X190106Y23163D01*
X190029Y23184D01*
X189953Y23209D01*
X189879Y23238D01*
X189806Y23270D01*
X189735Y23306D01*
X189666Y23345D01*
X189598Y23388D01*
X189533Y23433D01*
X189470Y23482D01*
X189410Y23534D01*
X189352Y23589D01*
X189297Y23647D01*
X189245Y23707D01*
X189196Y23770D01*
X189151Y23835D01*
X189108Y23903D01*
X189069Y23972D01*
X189033Y24043D01*
X189001Y24116D01*
X188972Y24190D01*
X188947Y24266D01*
X188926Y24343D01*
X188908Y24420D01*
X188895Y24499D01*
X188885Y24578D01*
X188879Y24657D01*
X188877Y24737D01*
X189202Y27658D02*
X189204Y27728D01*
X189210Y27798D01*
X189219Y27868D01*
X189232Y27937D01*
X189249Y28005D01*
X189270Y28072D01*
X189294Y28138D01*
X189322Y28203D01*
X189353Y28266D01*
X189388Y28327D01*
X189426Y28386D01*
X189467Y28444D01*
X189511Y28498D01*
X189558Y28551D01*
X189607Y28600D01*
X189660Y28647D01*
X189714Y28691D01*
X189772Y28732D01*
X189831Y28770D01*
X189892Y28805D01*
X189955Y28836D01*
X190020Y28864D01*
X190086Y28888D01*
X190153Y28909D01*
X190221Y28926D01*
X190290Y28939D01*
X190360Y28948D01*
X190430Y28954D01*
X190500Y28956D01*
X190570Y28954D01*
X190640Y28948D01*
X190710Y28939D01*
X190779Y28926D01*
X190847Y28909D01*
X190914Y28888D01*
X190980Y28864D01*
X191045Y28836D01*
X191108Y28805D01*
X191169Y28770D01*
X191228Y28732D01*
X191286Y28691D01*
X191340Y28647D01*
X191393Y28600D01*
X191442Y28551D01*
X191489Y28498D01*
X191533Y28444D01*
X191574Y28386D01*
X191612Y28327D01*
X191647Y28266D01*
X191678Y28203D01*
X191706Y28138D01*
X191730Y28072D01*
X191751Y28005D01*
X191768Y27937D01*
X191781Y27868D01*
X191790Y27798D01*
X191796Y27728D01*
X191798Y27658D01*
X191796Y27588D01*
X191790Y27518D01*
X191781Y27448D01*
X191768Y27379D01*
X191751Y27311D01*
X191730Y27244D01*
X191706Y27178D01*
X191678Y27113D01*
X191647Y27050D01*
X191612Y26989D01*
X191574Y26930D01*
X191533Y26872D01*
X191489Y26818D01*
X191442Y26765D01*
X191393Y26716D01*
X191340Y26669D01*
X191286Y26625D01*
X191228Y26584D01*
X191169Y26546D01*
X191108Y26511D01*
X191045Y26480D01*
X190980Y26452D01*
X190914Y26428D01*
X190847Y26407D01*
X190779Y26390D01*
X190710Y26377D01*
X190640Y26368D01*
X190570Y26362D01*
X190500Y26360D01*
X190430Y26362D01*
X190360Y26368D01*
X190290Y26377D01*
X190221Y26390D01*
X190153Y26407D01*
X190086Y26428D01*
X190020Y26452D01*
X189955Y26480D01*
X189892Y26511D01*
X189831Y26546D01*
X189772Y26584D01*
X189714Y26625D01*
X189660Y26669D01*
X189607Y26716D01*
X189558Y26765D01*
X189511Y26818D01*
X189467Y26872D01*
X189426Y26930D01*
X189388Y26989D01*
X189353Y27050D01*
X189322Y27113D01*
X189294Y27178D01*
X189270Y27244D01*
X189249Y27311D01*
X189232Y27379D01*
X189219Y27448D01*
X189210Y27518D01*
X189204Y27588D01*
X189202Y27658D01*
X215575Y25710D02*
X217523Y25710D01*
X215575Y25711D02*
X215505Y25713D01*
X215435Y25719D01*
X215365Y25728D01*
X215296Y25741D01*
X215228Y25758D01*
X215161Y25779D01*
X215095Y25803D01*
X215030Y25831D01*
X214967Y25862D01*
X214906Y25897D01*
X214847Y25935D01*
X214789Y25976D01*
X214735Y26020D01*
X214682Y26067D01*
X214633Y26116D01*
X214586Y26169D01*
X214542Y26223D01*
X214501Y26281D01*
X214463Y26340D01*
X214428Y26401D01*
X214397Y26464D01*
X214369Y26529D01*
X214345Y26595D01*
X214324Y26662D01*
X214307Y26730D01*
X214294Y26799D01*
X214285Y26869D01*
X214279Y26939D01*
X214277Y27009D01*
X214277Y27333D01*
X214279Y27413D01*
X214285Y27492D01*
X214295Y27571D01*
X214308Y27650D01*
X214326Y27727D01*
X214347Y27804D01*
X214372Y27880D01*
X214401Y27954D01*
X214433Y28027D01*
X214469Y28098D01*
X214508Y28167D01*
X214551Y28235D01*
X214596Y28300D01*
X214645Y28363D01*
X214697Y28423D01*
X214752Y28481D01*
X214810Y28536D01*
X214870Y28588D01*
X214933Y28637D01*
X214998Y28682D01*
X215066Y28725D01*
X215135Y28764D01*
X215206Y28800D01*
X215279Y28832D01*
X215353Y28861D01*
X215429Y28886D01*
X215506Y28907D01*
X215583Y28925D01*
X215662Y28938D01*
X215741Y28948D01*
X215820Y28954D01*
X215900Y28956D01*
X215980Y28954D01*
X216059Y28948D01*
X216138Y28938D01*
X216217Y28925D01*
X216294Y28907D01*
X216371Y28886D01*
X216447Y28861D01*
X216521Y28832D01*
X216594Y28800D01*
X216665Y28764D01*
X216734Y28725D01*
X216802Y28682D01*
X216867Y28637D01*
X216930Y28588D01*
X216990Y28536D01*
X217048Y28481D01*
X217103Y28423D01*
X217155Y28363D01*
X217204Y28300D01*
X217249Y28235D01*
X217292Y28167D01*
X217331Y28098D01*
X217367Y28027D01*
X217399Y27954D01*
X217428Y27880D01*
X217453Y27804D01*
X217474Y27727D01*
X217492Y27650D01*
X217505Y27571D01*
X217515Y27492D01*
X217521Y27413D01*
X217523Y27333D01*
X217523Y25710D01*
X217522Y25710D02*
X217520Y25611D01*
X217514Y25511D01*
X217505Y25412D01*
X217492Y25314D01*
X217475Y25216D01*
X217454Y25118D01*
X217429Y25022D01*
X217401Y24927D01*
X217369Y24833D01*
X217334Y24740D01*
X217295Y24648D01*
X217252Y24558D01*
X217207Y24470D01*
X217157Y24383D01*
X217105Y24299D01*
X217049Y24216D01*
X216991Y24136D01*
X216929Y24058D01*
X216864Y23983D01*
X216796Y23910D01*
X216726Y23840D01*
X216653Y23772D01*
X216578Y23707D01*
X216500Y23645D01*
X216420Y23587D01*
X216337Y23531D01*
X216253Y23479D01*
X216166Y23429D01*
X216078Y23384D01*
X215988Y23341D01*
X215896Y23302D01*
X215803Y23267D01*
X215709Y23235D01*
X215614Y23207D01*
X215518Y23182D01*
X215420Y23161D01*
X215322Y23144D01*
X215224Y23131D01*
X215125Y23122D01*
X215025Y23116D01*
X214926Y23114D01*
X389220Y27658D02*
X390843Y28956D01*
X390843Y23114D01*
X392465Y23114D02*
X389220Y23114D01*
X394935Y26360D02*
X396882Y26360D01*
X396882Y26359D02*
X396952Y26357D01*
X397022Y26351D01*
X397092Y26342D01*
X397161Y26329D01*
X397229Y26312D01*
X397296Y26291D01*
X397362Y26267D01*
X397427Y26239D01*
X397490Y26208D01*
X397551Y26173D01*
X397610Y26135D01*
X397668Y26094D01*
X397722Y26050D01*
X397775Y26003D01*
X397824Y25954D01*
X397871Y25901D01*
X397915Y25847D01*
X397956Y25789D01*
X397994Y25730D01*
X398029Y25669D01*
X398060Y25606D01*
X398088Y25541D01*
X398112Y25475D01*
X398133Y25408D01*
X398150Y25340D01*
X398163Y25271D01*
X398172Y25201D01*
X398178Y25131D01*
X398180Y25061D01*
X398180Y24737D01*
X398178Y24657D01*
X398172Y24578D01*
X398162Y24499D01*
X398149Y24420D01*
X398131Y24343D01*
X398110Y24266D01*
X398085Y24190D01*
X398056Y24116D01*
X398024Y24043D01*
X397988Y23972D01*
X397949Y23903D01*
X397906Y23835D01*
X397861Y23770D01*
X397812Y23707D01*
X397760Y23647D01*
X397705Y23589D01*
X397647Y23534D01*
X397587Y23482D01*
X397524Y23433D01*
X397459Y23388D01*
X397391Y23345D01*
X397322Y23306D01*
X397251Y23270D01*
X397178Y23238D01*
X397104Y23209D01*
X397028Y23184D01*
X396951Y23163D01*
X396874Y23145D01*
X396795Y23132D01*
X396716Y23122D01*
X396637Y23116D01*
X396557Y23114D01*
X396477Y23116D01*
X396398Y23122D01*
X396319Y23132D01*
X396240Y23145D01*
X396163Y23163D01*
X396086Y23184D01*
X396010Y23209D01*
X395936Y23238D01*
X395863Y23270D01*
X395792Y23306D01*
X395723Y23345D01*
X395655Y23388D01*
X395590Y23433D01*
X395527Y23482D01*
X395467Y23534D01*
X395409Y23589D01*
X395354Y23647D01*
X395302Y23707D01*
X395253Y23770D01*
X395208Y23835D01*
X395165Y23903D01*
X395126Y23972D01*
X395090Y24043D01*
X395058Y24116D01*
X395029Y24190D01*
X395004Y24266D01*
X394983Y24343D01*
X394965Y24420D01*
X394952Y24499D01*
X394942Y24578D01*
X394936Y24657D01*
X394934Y24737D01*
X394935Y24737D02*
X394935Y26360D01*
X394937Y26459D01*
X394943Y26559D01*
X394952Y26658D01*
X394965Y26756D01*
X394982Y26854D01*
X395003Y26952D01*
X395028Y27048D01*
X395056Y27143D01*
X395088Y27237D01*
X395123Y27330D01*
X395162Y27422D01*
X395205Y27512D01*
X395250Y27600D01*
X395300Y27687D01*
X395352Y27771D01*
X395408Y27854D01*
X395466Y27934D01*
X395528Y28012D01*
X395593Y28087D01*
X395661Y28160D01*
X395731Y28230D01*
X395804Y28298D01*
X395879Y28363D01*
X395957Y28425D01*
X396037Y28483D01*
X396120Y28539D01*
X396204Y28591D01*
X396291Y28641D01*
X396379Y28686D01*
X396469Y28729D01*
X396561Y28768D01*
X396653Y28803D01*
X396748Y28835D01*
X396843Y28863D01*
X396939Y28888D01*
X397037Y28909D01*
X397135Y28926D01*
X397233Y28939D01*
X397332Y28948D01*
X397432Y28954D01*
X397531Y28956D01*
X389220Y153388D02*
X390843Y154686D01*
X390843Y148844D01*
X392465Y148844D02*
X389220Y148844D01*
X394935Y154037D02*
X394935Y154686D01*
X398180Y154686D01*
X396557Y148844D01*
X214666Y153226D02*
X214664Y153300D01*
X214659Y153374D01*
X214649Y153447D01*
X214636Y153520D01*
X214619Y153592D01*
X214599Y153663D01*
X214575Y153733D01*
X214548Y153802D01*
X214517Y153869D01*
X214482Y153935D01*
X214445Y153999D01*
X214404Y154061D01*
X214360Y154120D01*
X214314Y154178D01*
X214264Y154233D01*
X214212Y154285D01*
X214157Y154335D01*
X214099Y154381D01*
X214040Y154425D01*
X213978Y154466D01*
X213914Y154503D01*
X213848Y154538D01*
X213781Y154569D01*
X213712Y154596D01*
X213642Y154620D01*
X213571Y154640D01*
X213499Y154657D01*
X213426Y154670D01*
X213353Y154680D01*
X213279Y154685D01*
X213205Y154687D01*
X213205Y154686D02*
X213121Y154684D01*
X213037Y154678D01*
X212953Y154669D01*
X212870Y154656D01*
X212787Y154639D01*
X212706Y154618D01*
X212625Y154594D01*
X212545Y154566D01*
X212467Y154535D01*
X212390Y154500D01*
X212315Y154462D01*
X212242Y154420D01*
X212171Y154375D01*
X212102Y154327D01*
X212035Y154276D01*
X211970Y154222D01*
X211908Y154165D01*
X211848Y154106D01*
X211791Y154043D01*
X211737Y153979D01*
X211686Y153912D01*
X211639Y153842D01*
X211594Y153771D01*
X211552Y153698D01*
X211514Y153622D01*
X211479Y153546D01*
X211448Y153468D01*
X211420Y153388D01*
X214178Y152090D02*
X214231Y152143D01*
X214281Y152198D01*
X214329Y152256D01*
X214374Y152315D01*
X214416Y152377D01*
X214455Y152441D01*
X214490Y152507D01*
X214523Y152574D01*
X214552Y152642D01*
X214579Y152713D01*
X214601Y152784D01*
X214621Y152856D01*
X214637Y152929D01*
X214649Y153003D01*
X214658Y153077D01*
X214663Y153151D01*
X214665Y153226D01*
X214178Y152090D02*
X211420Y148844D01*
X214665Y148844D01*
X217135Y150142D02*
X218433Y154686D01*
X217135Y150142D02*
X220380Y150142D01*
X219407Y151440D02*
X219407Y148844D01*
X189266Y153226D02*
X189264Y153300D01*
X189259Y153374D01*
X189249Y153447D01*
X189236Y153520D01*
X189219Y153592D01*
X189199Y153663D01*
X189175Y153733D01*
X189148Y153802D01*
X189117Y153869D01*
X189082Y153935D01*
X189045Y153999D01*
X189004Y154061D01*
X188960Y154120D01*
X188914Y154178D01*
X188864Y154233D01*
X188812Y154285D01*
X188757Y154335D01*
X188699Y154381D01*
X188640Y154425D01*
X188578Y154466D01*
X188514Y154503D01*
X188448Y154538D01*
X188381Y154569D01*
X188312Y154596D01*
X188242Y154620D01*
X188171Y154640D01*
X188099Y154657D01*
X188026Y154670D01*
X187953Y154680D01*
X187879Y154685D01*
X187805Y154687D01*
X187805Y154686D02*
X187721Y154684D01*
X187637Y154678D01*
X187553Y154669D01*
X187470Y154656D01*
X187387Y154639D01*
X187306Y154618D01*
X187225Y154594D01*
X187145Y154566D01*
X187067Y154535D01*
X186990Y154500D01*
X186915Y154462D01*
X186842Y154420D01*
X186771Y154375D01*
X186702Y154327D01*
X186635Y154276D01*
X186570Y154222D01*
X186508Y154165D01*
X186448Y154106D01*
X186391Y154043D01*
X186337Y153979D01*
X186286Y153912D01*
X186239Y153842D01*
X186194Y153771D01*
X186152Y153698D01*
X186114Y153622D01*
X186079Y153546D01*
X186048Y153468D01*
X186020Y153388D01*
X188778Y152090D02*
X188831Y152143D01*
X188881Y152198D01*
X188929Y152256D01*
X188974Y152315D01*
X189016Y152377D01*
X189055Y152441D01*
X189090Y152507D01*
X189123Y152574D01*
X189152Y152642D01*
X189179Y152713D01*
X189201Y152784D01*
X189221Y152856D01*
X189237Y152929D01*
X189249Y153003D01*
X189258Y153077D01*
X189263Y153151D01*
X189265Y153226D01*
X188778Y152090D02*
X186020Y148844D01*
X189265Y148844D01*
X191735Y148844D02*
X193682Y148844D01*
X193752Y148846D01*
X193822Y148852D01*
X193892Y148861D01*
X193961Y148874D01*
X194029Y148891D01*
X194096Y148912D01*
X194162Y148936D01*
X194227Y148964D01*
X194290Y148995D01*
X194351Y149030D01*
X194410Y149068D01*
X194468Y149109D01*
X194522Y149153D01*
X194575Y149200D01*
X194624Y149249D01*
X194671Y149302D01*
X194715Y149356D01*
X194756Y149414D01*
X194794Y149473D01*
X194829Y149534D01*
X194860Y149597D01*
X194888Y149662D01*
X194912Y149728D01*
X194933Y149795D01*
X194950Y149863D01*
X194963Y149932D01*
X194972Y150002D01*
X194978Y150072D01*
X194980Y150142D01*
X194980Y150791D01*
X194978Y150861D01*
X194972Y150931D01*
X194963Y151001D01*
X194950Y151070D01*
X194933Y151138D01*
X194912Y151205D01*
X194888Y151271D01*
X194860Y151336D01*
X194829Y151399D01*
X194794Y151460D01*
X194756Y151519D01*
X194715Y151577D01*
X194671Y151631D01*
X194624Y151684D01*
X194575Y151733D01*
X194522Y151780D01*
X194468Y151824D01*
X194410Y151865D01*
X194351Y151903D01*
X194290Y151938D01*
X194227Y151969D01*
X194162Y151997D01*
X194096Y152021D01*
X194029Y152042D01*
X193961Y152059D01*
X193892Y152072D01*
X193822Y152081D01*
X193752Y152087D01*
X193682Y152089D01*
X193682Y152090D02*
X191735Y152090D01*
X191735Y154686D01*
X194980Y154686D01*
X9843Y148844D02*
X8220Y148844D01*
X9843Y148844D02*
X9923Y148846D01*
X10002Y148852D01*
X10081Y148862D01*
X10160Y148875D01*
X10237Y148893D01*
X10314Y148914D01*
X10390Y148939D01*
X10464Y148968D01*
X10537Y149000D01*
X10608Y149036D01*
X10677Y149075D01*
X10745Y149118D01*
X10810Y149163D01*
X10873Y149212D01*
X10933Y149264D01*
X10991Y149319D01*
X11046Y149377D01*
X11098Y149437D01*
X11147Y149500D01*
X11192Y149565D01*
X11235Y149633D01*
X11274Y149702D01*
X11310Y149773D01*
X11342Y149846D01*
X11371Y149920D01*
X11396Y149996D01*
X11417Y150073D01*
X11435Y150150D01*
X11448Y150229D01*
X11458Y150308D01*
X11464Y150387D01*
X11466Y150467D01*
X11464Y150547D01*
X11458Y150626D01*
X11448Y150705D01*
X11435Y150784D01*
X11417Y150861D01*
X11396Y150938D01*
X11371Y151014D01*
X11342Y151088D01*
X11310Y151161D01*
X11274Y151232D01*
X11235Y151301D01*
X11192Y151369D01*
X11147Y151434D01*
X11098Y151497D01*
X11046Y151557D01*
X10991Y151615D01*
X10933Y151670D01*
X10873Y151722D01*
X10810Y151771D01*
X10745Y151816D01*
X10677Y151859D01*
X10608Y151898D01*
X10537Y151934D01*
X10464Y151966D01*
X10390Y151995D01*
X10314Y152020D01*
X10237Y152041D01*
X10160Y152059D01*
X10081Y152072D01*
X10002Y152082D01*
X9923Y152088D01*
X9843Y152090D01*
X10167Y154686D02*
X8220Y154686D01*
X10167Y154686D02*
X10237Y154684D01*
X10307Y154678D01*
X10377Y154669D01*
X10446Y154656D01*
X10514Y154639D01*
X10581Y154618D01*
X10647Y154594D01*
X10712Y154566D01*
X10775Y154535D01*
X10836Y154500D01*
X10895Y154462D01*
X10953Y154421D01*
X11007Y154377D01*
X11060Y154330D01*
X11109Y154281D01*
X11156Y154228D01*
X11200Y154174D01*
X11241Y154116D01*
X11279Y154057D01*
X11314Y153996D01*
X11345Y153933D01*
X11373Y153868D01*
X11397Y153802D01*
X11418Y153735D01*
X11435Y153667D01*
X11448Y153598D01*
X11457Y153528D01*
X11463Y153458D01*
X11465Y153388D01*
X11463Y153318D01*
X11457Y153248D01*
X11448Y153178D01*
X11435Y153109D01*
X11418Y153041D01*
X11397Y152974D01*
X11373Y152908D01*
X11345Y152843D01*
X11314Y152780D01*
X11279Y152719D01*
X11241Y152660D01*
X11200Y152602D01*
X11156Y152548D01*
X11109Y152495D01*
X11060Y152446D01*
X11007Y152399D01*
X10953Y152355D01*
X10895Y152314D01*
X10836Y152276D01*
X10775Y152241D01*
X10712Y152210D01*
X10647Y152182D01*
X10581Y152158D01*
X10514Y152137D01*
X10446Y152120D01*
X10377Y152107D01*
X10307Y152098D01*
X10237Y152092D01*
X10167Y152090D01*
X8869Y152090D01*
X15720Y154687D02*
X15794Y154685D01*
X15868Y154680D01*
X15941Y154670D01*
X16014Y154657D01*
X16086Y154640D01*
X16157Y154620D01*
X16227Y154596D01*
X16296Y154569D01*
X16363Y154538D01*
X16429Y154503D01*
X16493Y154466D01*
X16555Y154425D01*
X16614Y154381D01*
X16672Y154335D01*
X16727Y154285D01*
X16779Y154233D01*
X16829Y154178D01*
X16875Y154120D01*
X16919Y154061D01*
X16960Y153999D01*
X16997Y153935D01*
X17032Y153869D01*
X17063Y153802D01*
X17090Y153733D01*
X17114Y153663D01*
X17134Y153592D01*
X17151Y153520D01*
X17164Y153447D01*
X17174Y153374D01*
X17179Y153300D01*
X17181Y153226D01*
X15720Y154686D02*
X15636Y154684D01*
X15552Y154678D01*
X15468Y154669D01*
X15385Y154656D01*
X15302Y154639D01*
X15221Y154618D01*
X15140Y154594D01*
X15060Y154566D01*
X14982Y154535D01*
X14905Y154500D01*
X14830Y154462D01*
X14757Y154420D01*
X14686Y154375D01*
X14617Y154327D01*
X14550Y154276D01*
X14485Y154222D01*
X14423Y154165D01*
X14363Y154106D01*
X14306Y154043D01*
X14252Y153979D01*
X14201Y153912D01*
X14154Y153842D01*
X14109Y153771D01*
X14067Y153698D01*
X14029Y153622D01*
X13994Y153546D01*
X13963Y153468D01*
X13935Y153388D01*
X16693Y152090D02*
X16746Y152143D01*
X16796Y152198D01*
X16844Y152256D01*
X16889Y152315D01*
X16931Y152377D01*
X16970Y152441D01*
X17005Y152507D01*
X17038Y152574D01*
X17067Y152642D01*
X17094Y152713D01*
X17116Y152784D01*
X17136Y152856D01*
X17152Y152929D01*
X17164Y153003D01*
X17173Y153077D01*
X17178Y153151D01*
X17180Y153226D01*
X16693Y152090D02*
X13935Y148844D01*
X17180Y148844D01*
X364685Y141986D02*
X364685Y136454D01*
X364684Y136454D02*
X364682Y136376D01*
X364676Y136299D01*
X364667Y136222D01*
X364654Y136146D01*
X364637Y136070D01*
X364616Y135995D01*
X364592Y135922D01*
X364564Y135849D01*
X364532Y135778D01*
X364497Y135709D01*
X364459Y135642D01*
X364418Y135576D01*
X364373Y135513D01*
X364325Y135452D01*
X364275Y135393D01*
X364221Y135337D01*
X364165Y135283D01*
X364106Y135233D01*
X364045Y135185D01*
X363982Y135140D01*
X363916Y135099D01*
X363849Y135061D01*
X363780Y135026D01*
X363709Y134994D01*
X363636Y134966D01*
X363563Y134942D01*
X363488Y134921D01*
X363412Y134904D01*
X363336Y134891D01*
X363259Y134882D01*
X363182Y134876D01*
X363104Y134874D01*
X362314Y134874D01*
X367795Y140406D02*
X369770Y141986D01*
X369770Y134874D01*
X367795Y134874D02*
X371746Y134874D01*
X50496Y143764D02*
X50496Y150876D01*
X52471Y150876D01*
X52558Y150874D01*
X52646Y150868D01*
X52733Y150859D01*
X52819Y150845D01*
X52905Y150828D01*
X52989Y150807D01*
X53073Y150782D01*
X53156Y150753D01*
X53237Y150721D01*
X53317Y150686D01*
X53395Y150647D01*
X53472Y150604D01*
X53546Y150558D01*
X53618Y150509D01*
X53688Y150457D01*
X53756Y150401D01*
X53821Y150343D01*
X53884Y150282D01*
X53943Y150218D01*
X54000Y150151D01*
X54054Y150083D01*
X54105Y150011D01*
X54152Y149938D01*
X54197Y149863D01*
X54238Y149785D01*
X54275Y149706D01*
X54309Y149626D01*
X54339Y149544D01*
X54366Y149461D01*
X54389Y149376D01*
X54408Y149291D01*
X54423Y149205D01*
X54435Y149118D01*
X54443Y149031D01*
X54447Y148944D01*
X54447Y148856D01*
X54443Y148769D01*
X54435Y148682D01*
X54423Y148595D01*
X54408Y148509D01*
X54389Y148424D01*
X54366Y148339D01*
X54339Y148256D01*
X54309Y148174D01*
X54275Y148094D01*
X54238Y148015D01*
X54197Y147937D01*
X54152Y147862D01*
X54105Y147789D01*
X54054Y147717D01*
X54000Y147649D01*
X53943Y147582D01*
X53884Y147518D01*
X53821Y147457D01*
X53756Y147399D01*
X53688Y147343D01*
X53618Y147291D01*
X53546Y147242D01*
X53472Y147196D01*
X53395Y147153D01*
X53317Y147114D01*
X53237Y147079D01*
X53156Y147047D01*
X53073Y147018D01*
X52989Y146993D01*
X52905Y146972D01*
X52819Y146955D01*
X52733Y146941D01*
X52646Y146932D01*
X52558Y146926D01*
X52471Y146924D01*
X52471Y146925D02*
X50496Y146925D01*
X52866Y146925D02*
X54447Y143764D01*
X57313Y149296D02*
X59289Y150876D01*
X59289Y143764D01*
X61264Y143764D02*
X57313Y143764D01*
D11*
X75520Y135380D02*
X117520Y135380D01*
X117520Y103380D02*
X75520Y103380D01*
X75520Y114380D02*
X75520Y124380D01*
X117520Y124380D02*
X117520Y114380D01*
D12*
X67736Y137890D02*
X67738Y137936D01*
X67744Y137981D01*
X67754Y138026D01*
X67767Y138070D01*
X67785Y138113D01*
X67806Y138154D01*
X67830Y138193D01*
X67858Y138229D01*
X67888Y138264D01*
X67922Y138295D01*
X67958Y138323D01*
X67996Y138349D01*
X68037Y138370D01*
X68079Y138389D01*
X68123Y138403D01*
X68167Y138414D01*
X68213Y138421D01*
X68259Y138424D01*
X68304Y138423D01*
X68350Y138418D01*
X68395Y138409D01*
X68439Y138396D01*
X68482Y138380D01*
X68524Y138360D01*
X68563Y138336D01*
X68600Y138310D01*
X68635Y138280D01*
X68667Y138247D01*
X68697Y138211D01*
X68723Y138173D01*
X68745Y138133D01*
X68764Y138092D01*
X68780Y138048D01*
X68792Y138004D01*
X68800Y137959D01*
X68804Y137913D01*
X68804Y137867D01*
X68800Y137821D01*
X68792Y137776D01*
X68780Y137732D01*
X68764Y137688D01*
X68745Y137647D01*
X68723Y137607D01*
X68697Y137569D01*
X68667Y137533D01*
X68635Y137500D01*
X68600Y137470D01*
X68563Y137444D01*
X68524Y137420D01*
X68482Y137400D01*
X68439Y137384D01*
X68395Y137371D01*
X68350Y137362D01*
X68304Y137357D01*
X68259Y137356D01*
X68213Y137359D01*
X68167Y137366D01*
X68123Y137377D01*
X68079Y137391D01*
X68037Y137410D01*
X67996Y137431D01*
X67958Y137457D01*
X67922Y137485D01*
X67888Y137516D01*
X67858Y137551D01*
X67830Y137587D01*
X67806Y137626D01*
X67785Y137667D01*
X67767Y137710D01*
X67754Y137754D01*
X67744Y137799D01*
X67738Y137844D01*
X67736Y137890D01*
D10*
X89464Y116331D02*
X89542Y116333D01*
X89619Y116339D01*
X89696Y116348D01*
X89772Y116361D01*
X89848Y116378D01*
X89923Y116399D01*
X89996Y116423D01*
X90069Y116451D01*
X90140Y116483D01*
X90209Y116518D01*
X90276Y116556D01*
X90342Y116597D01*
X90405Y116642D01*
X90466Y116690D01*
X90525Y116740D01*
X90581Y116794D01*
X90635Y116850D01*
X90685Y116909D01*
X90733Y116970D01*
X90778Y117033D01*
X90819Y117099D01*
X90857Y117166D01*
X90892Y117235D01*
X90924Y117306D01*
X90952Y117379D01*
X90976Y117452D01*
X90997Y117527D01*
X91014Y117603D01*
X91027Y117679D01*
X91036Y117756D01*
X91042Y117833D01*
X91044Y117911D01*
X89464Y116331D02*
X89349Y116333D01*
X89235Y116339D01*
X89121Y116349D01*
X89007Y116362D01*
X88894Y116380D01*
X88781Y116402D01*
X88669Y116427D01*
X88559Y116456D01*
X88449Y116489D01*
X88340Y116526D01*
X88233Y116566D01*
X88127Y116610D01*
X88023Y116658D01*
X87920Y116709D01*
X87820Y116764D01*
X87721Y116822D01*
X87624Y116884D01*
X87530Y116948D01*
X87437Y117016D01*
X87347Y117088D01*
X87260Y117162D01*
X87175Y117239D01*
X87093Y117319D01*
X87291Y121863D02*
X87293Y121941D01*
X87299Y122018D01*
X87308Y122095D01*
X87321Y122171D01*
X87338Y122247D01*
X87359Y122322D01*
X87383Y122395D01*
X87411Y122468D01*
X87443Y122539D01*
X87478Y122608D01*
X87516Y122675D01*
X87557Y122741D01*
X87602Y122804D01*
X87650Y122865D01*
X87700Y122924D01*
X87754Y122980D01*
X87810Y123034D01*
X87869Y123084D01*
X87930Y123132D01*
X87993Y123177D01*
X88059Y123218D01*
X88126Y123256D01*
X88195Y123291D01*
X88266Y123323D01*
X88339Y123351D01*
X88412Y123375D01*
X88487Y123396D01*
X88563Y123413D01*
X88639Y123426D01*
X88716Y123435D01*
X88794Y123441D01*
X88871Y123443D01*
X88977Y123441D01*
X89083Y123435D01*
X89188Y123426D01*
X89293Y123413D01*
X89398Y123396D01*
X89502Y123375D01*
X89605Y123351D01*
X89707Y123323D01*
X89808Y123291D01*
X89908Y123256D01*
X90006Y123217D01*
X90104Y123174D01*
X90199Y123129D01*
X90293Y123080D01*
X90385Y123027D01*
X90475Y122971D01*
X90563Y122912D01*
X90649Y122850D01*
X88081Y120480D02*
X88014Y120522D01*
X87949Y120567D01*
X87886Y120616D01*
X87825Y120667D01*
X87768Y120722D01*
X87713Y120779D01*
X87660Y120839D01*
X87611Y120901D01*
X87565Y120966D01*
X87523Y121032D01*
X87483Y121101D01*
X87447Y121172D01*
X87415Y121245D01*
X87386Y121319D01*
X87361Y121394D01*
X87340Y121470D01*
X87322Y121548D01*
X87309Y121626D01*
X87299Y121705D01*
X87293Y121784D01*
X87291Y121863D01*
X90254Y119294D02*
X90321Y119252D01*
X90386Y119207D01*
X90449Y119158D01*
X90510Y119107D01*
X90567Y119052D01*
X90622Y118995D01*
X90675Y118935D01*
X90724Y118873D01*
X90770Y118808D01*
X90812Y118742D01*
X90852Y118673D01*
X90888Y118602D01*
X90920Y118529D01*
X90949Y118455D01*
X90974Y118380D01*
X90995Y118304D01*
X91013Y118226D01*
X91026Y118148D01*
X91036Y118069D01*
X91042Y117990D01*
X91044Y117911D01*
X90254Y119294D02*
X88081Y120480D01*
X93452Y123443D02*
X95032Y116331D01*
X96612Y121072D01*
X98193Y116331D01*
X99773Y123443D01*
X102409Y121863D02*
X104385Y123443D01*
X104385Y116331D01*
X106360Y116331D02*
X102409Y116331D01*
D11*
X117520Y73150D02*
X75520Y73150D01*
X75520Y41150D02*
X117520Y41150D01*
X75520Y52150D02*
X75520Y62150D01*
X117520Y62150D02*
X117520Y52150D01*
D12*
X67736Y75660D02*
X67738Y75706D01*
X67744Y75751D01*
X67754Y75796D01*
X67767Y75840D01*
X67785Y75883D01*
X67806Y75924D01*
X67830Y75963D01*
X67858Y75999D01*
X67888Y76034D01*
X67922Y76065D01*
X67958Y76093D01*
X67996Y76119D01*
X68037Y76140D01*
X68079Y76159D01*
X68123Y76173D01*
X68167Y76184D01*
X68213Y76191D01*
X68259Y76194D01*
X68304Y76193D01*
X68350Y76188D01*
X68395Y76179D01*
X68439Y76166D01*
X68482Y76150D01*
X68524Y76130D01*
X68563Y76106D01*
X68600Y76080D01*
X68635Y76050D01*
X68667Y76017D01*
X68697Y75981D01*
X68723Y75943D01*
X68745Y75903D01*
X68764Y75862D01*
X68780Y75818D01*
X68792Y75774D01*
X68800Y75729D01*
X68804Y75683D01*
X68804Y75637D01*
X68800Y75591D01*
X68792Y75546D01*
X68780Y75502D01*
X68764Y75458D01*
X68745Y75417D01*
X68723Y75377D01*
X68697Y75339D01*
X68667Y75303D01*
X68635Y75270D01*
X68600Y75240D01*
X68563Y75214D01*
X68524Y75190D01*
X68482Y75170D01*
X68439Y75154D01*
X68395Y75141D01*
X68350Y75132D01*
X68304Y75127D01*
X68259Y75126D01*
X68213Y75129D01*
X68167Y75136D01*
X68123Y75147D01*
X68079Y75161D01*
X68037Y75180D01*
X67996Y75201D01*
X67958Y75227D01*
X67922Y75255D01*
X67888Y75286D01*
X67858Y75321D01*
X67830Y75357D01*
X67806Y75396D01*
X67785Y75437D01*
X67767Y75480D01*
X67754Y75524D01*
X67744Y75569D01*
X67738Y75614D01*
X67736Y75660D01*
D10*
X89464Y55371D02*
X89542Y55373D01*
X89619Y55379D01*
X89696Y55388D01*
X89772Y55401D01*
X89848Y55418D01*
X89923Y55439D01*
X89996Y55463D01*
X90069Y55491D01*
X90140Y55523D01*
X90209Y55558D01*
X90276Y55596D01*
X90342Y55637D01*
X90405Y55682D01*
X90466Y55730D01*
X90525Y55780D01*
X90581Y55834D01*
X90635Y55890D01*
X90685Y55949D01*
X90733Y56010D01*
X90778Y56073D01*
X90819Y56139D01*
X90857Y56206D01*
X90892Y56275D01*
X90924Y56346D01*
X90952Y56419D01*
X90976Y56492D01*
X90997Y56567D01*
X91014Y56643D01*
X91027Y56719D01*
X91036Y56796D01*
X91042Y56873D01*
X91044Y56951D01*
X89464Y55371D02*
X89349Y55373D01*
X89235Y55379D01*
X89121Y55389D01*
X89007Y55402D01*
X88894Y55420D01*
X88781Y55442D01*
X88669Y55467D01*
X88559Y55496D01*
X88449Y55529D01*
X88340Y55566D01*
X88233Y55606D01*
X88127Y55650D01*
X88023Y55698D01*
X87920Y55749D01*
X87820Y55804D01*
X87721Y55862D01*
X87624Y55924D01*
X87530Y55988D01*
X87437Y56056D01*
X87347Y56128D01*
X87260Y56202D01*
X87175Y56279D01*
X87093Y56359D01*
X87291Y60903D02*
X87293Y60981D01*
X87299Y61058D01*
X87308Y61135D01*
X87321Y61211D01*
X87338Y61287D01*
X87359Y61362D01*
X87383Y61435D01*
X87411Y61508D01*
X87443Y61579D01*
X87478Y61648D01*
X87516Y61715D01*
X87557Y61781D01*
X87602Y61844D01*
X87650Y61905D01*
X87700Y61964D01*
X87754Y62020D01*
X87810Y62074D01*
X87869Y62124D01*
X87930Y62172D01*
X87993Y62217D01*
X88059Y62258D01*
X88126Y62296D01*
X88195Y62331D01*
X88266Y62363D01*
X88339Y62391D01*
X88412Y62415D01*
X88487Y62436D01*
X88563Y62453D01*
X88639Y62466D01*
X88716Y62475D01*
X88794Y62481D01*
X88871Y62483D01*
X88977Y62481D01*
X89083Y62475D01*
X89188Y62466D01*
X89293Y62453D01*
X89398Y62436D01*
X89502Y62415D01*
X89605Y62391D01*
X89707Y62363D01*
X89808Y62331D01*
X89908Y62296D01*
X90006Y62257D01*
X90104Y62214D01*
X90199Y62169D01*
X90293Y62120D01*
X90385Y62067D01*
X90475Y62011D01*
X90563Y61952D01*
X90649Y61890D01*
X88081Y59520D02*
X88014Y59562D01*
X87949Y59607D01*
X87886Y59656D01*
X87825Y59707D01*
X87768Y59762D01*
X87713Y59819D01*
X87660Y59879D01*
X87611Y59941D01*
X87565Y60006D01*
X87523Y60072D01*
X87483Y60141D01*
X87447Y60212D01*
X87415Y60285D01*
X87386Y60359D01*
X87361Y60434D01*
X87340Y60510D01*
X87322Y60588D01*
X87309Y60666D01*
X87299Y60745D01*
X87293Y60824D01*
X87291Y60903D01*
X90254Y58334D02*
X90321Y58292D01*
X90386Y58247D01*
X90449Y58198D01*
X90510Y58147D01*
X90567Y58092D01*
X90622Y58035D01*
X90675Y57975D01*
X90724Y57913D01*
X90770Y57848D01*
X90812Y57782D01*
X90852Y57713D01*
X90888Y57642D01*
X90920Y57569D01*
X90949Y57495D01*
X90974Y57420D01*
X90995Y57344D01*
X91013Y57266D01*
X91026Y57188D01*
X91036Y57109D01*
X91042Y57030D01*
X91044Y56951D01*
X90254Y58334D02*
X88081Y59520D01*
X93452Y62483D02*
X95032Y55371D01*
X96612Y60112D01*
X98193Y55371D01*
X99773Y62483D01*
X104582Y62483D02*
X104664Y62481D01*
X104746Y62475D01*
X104828Y62466D01*
X104909Y62453D01*
X104989Y62436D01*
X105069Y62415D01*
X105147Y62391D01*
X105224Y62363D01*
X105300Y62332D01*
X105375Y62297D01*
X105447Y62258D01*
X105518Y62217D01*
X105587Y62172D01*
X105653Y62124D01*
X105718Y62073D01*
X105780Y62019D01*
X105839Y61962D01*
X105896Y61903D01*
X105950Y61841D01*
X106001Y61776D01*
X106049Y61710D01*
X106094Y61641D01*
X106135Y61570D01*
X106174Y61498D01*
X106209Y61423D01*
X106240Y61347D01*
X106268Y61270D01*
X106292Y61192D01*
X106313Y61112D01*
X106330Y61032D01*
X106343Y60951D01*
X106352Y60869D01*
X106358Y60787D01*
X106360Y60705D01*
X104582Y62483D02*
X104489Y62481D01*
X104397Y62475D01*
X104305Y62466D01*
X104213Y62453D01*
X104122Y62436D01*
X104032Y62416D01*
X103942Y62392D01*
X103854Y62364D01*
X103766Y62332D01*
X103681Y62298D01*
X103596Y62259D01*
X103514Y62218D01*
X103433Y62173D01*
X103353Y62124D01*
X103276Y62073D01*
X103201Y62019D01*
X103129Y61961D01*
X103059Y61901D01*
X102991Y61837D01*
X102926Y61772D01*
X102863Y61703D01*
X102804Y61632D01*
X102747Y61559D01*
X102693Y61483D01*
X102643Y61406D01*
X102595Y61326D01*
X102551Y61245D01*
X102511Y61161D01*
X102473Y61077D01*
X102439Y60990D01*
X102409Y60903D01*
X105768Y59322D02*
X105829Y59383D01*
X105887Y59446D01*
X105942Y59512D01*
X105995Y59580D01*
X106044Y59651D01*
X106089Y59723D01*
X106132Y59798D01*
X106171Y59874D01*
X106207Y59953D01*
X106239Y60032D01*
X106267Y60113D01*
X106292Y60196D01*
X106313Y60279D01*
X106330Y60363D01*
X106344Y60448D01*
X106353Y60533D01*
X106359Y60619D01*
X106361Y60705D01*
X105768Y59322D02*
X102409Y55371D01*
X106360Y55371D01*
D11*
X153703Y88900D02*
X203200Y138397D01*
X252697Y88900D01*
X203200Y39403D01*
X153703Y88900D01*
X159951Y88617D02*
X159953Y88751D01*
X159959Y88885D01*
X159969Y89018D01*
X159983Y89152D01*
X160001Y89285D01*
X160023Y89417D01*
X160048Y89548D01*
X160078Y89679D01*
X160112Y89809D01*
X160149Y89937D01*
X160190Y90065D01*
X160235Y90191D01*
X160284Y90316D01*
X160336Y90439D01*
X160392Y90561D01*
X160452Y90681D01*
X160515Y90799D01*
X160582Y90915D01*
X160652Y91029D01*
X160726Y91141D01*
X160803Y91251D01*
X160883Y91359D01*
X160966Y91464D01*
X161052Y91566D01*
X161141Y91666D01*
X161234Y91763D01*
X161329Y91858D01*
X161427Y91949D01*
X161527Y92038D01*
X161630Y92123D01*
X161736Y92206D01*
X161844Y92285D01*
X161954Y92361D01*
X162067Y92434D01*
X162182Y92503D01*
X162298Y92569D01*
X162417Y92631D01*
X162537Y92690D01*
X162660Y92745D01*
X162783Y92797D01*
X162908Y92844D01*
X163035Y92888D01*
X163163Y92929D01*
X163292Y92965D01*
X163422Y92998D01*
X163553Y93026D01*
X163684Y93051D01*
X163817Y93072D01*
X163950Y93089D01*
X164083Y93102D01*
X164217Y93111D01*
X164351Y93116D01*
X164485Y93117D01*
X164618Y93114D01*
X164752Y93107D01*
X164886Y93096D01*
X165019Y93081D01*
X165152Y93062D01*
X165284Y93039D01*
X165415Y93013D01*
X165545Y92982D01*
X165675Y92947D01*
X165803Y92909D01*
X165930Y92867D01*
X166056Y92821D01*
X166181Y92771D01*
X166304Y92718D01*
X166425Y92661D01*
X166545Y92600D01*
X166662Y92536D01*
X166778Y92469D01*
X166892Y92398D01*
X167003Y92323D01*
X167112Y92246D01*
X167219Y92165D01*
X167324Y92081D01*
X167425Y91994D01*
X167525Y91904D01*
X167621Y91811D01*
X167715Y91715D01*
X167806Y91616D01*
X167893Y91515D01*
X167978Y91411D01*
X168060Y91305D01*
X168138Y91197D01*
X168213Y91086D01*
X168285Y90973D01*
X168354Y90857D01*
X168419Y90740D01*
X168480Y90621D01*
X168538Y90500D01*
X168592Y90378D01*
X168643Y90254D01*
X168690Y90128D01*
X168733Y90001D01*
X168772Y89873D01*
X168808Y89744D01*
X168839Y89614D01*
X168867Y89483D01*
X168891Y89351D01*
X168911Y89218D01*
X168927Y89085D01*
X168939Y88952D01*
X168947Y88818D01*
X168951Y88684D01*
X168951Y88550D01*
X168947Y88416D01*
X168939Y88282D01*
X168927Y88149D01*
X168911Y88016D01*
X168891Y87883D01*
X168867Y87751D01*
X168839Y87620D01*
X168808Y87490D01*
X168772Y87361D01*
X168733Y87233D01*
X168690Y87106D01*
X168643Y86980D01*
X168592Y86856D01*
X168538Y86734D01*
X168480Y86613D01*
X168419Y86494D01*
X168354Y86377D01*
X168285Y86261D01*
X168213Y86148D01*
X168138Y86037D01*
X168060Y85929D01*
X167978Y85823D01*
X167893Y85719D01*
X167806Y85618D01*
X167715Y85519D01*
X167621Y85423D01*
X167525Y85330D01*
X167425Y85240D01*
X167324Y85153D01*
X167219Y85069D01*
X167112Y84988D01*
X167003Y84911D01*
X166892Y84836D01*
X166778Y84765D01*
X166662Y84698D01*
X166545Y84634D01*
X166425Y84573D01*
X166304Y84516D01*
X166181Y84463D01*
X166056Y84413D01*
X165930Y84367D01*
X165803Y84325D01*
X165675Y84287D01*
X165545Y84252D01*
X165415Y84221D01*
X165284Y84195D01*
X165152Y84172D01*
X165019Y84153D01*
X164886Y84138D01*
X164752Y84127D01*
X164618Y84120D01*
X164485Y84117D01*
X164351Y84118D01*
X164217Y84123D01*
X164083Y84132D01*
X163950Y84145D01*
X163817Y84162D01*
X163684Y84183D01*
X163553Y84208D01*
X163422Y84236D01*
X163292Y84269D01*
X163163Y84305D01*
X163035Y84346D01*
X162908Y84390D01*
X162783Y84437D01*
X162660Y84489D01*
X162537Y84544D01*
X162417Y84603D01*
X162298Y84665D01*
X162182Y84731D01*
X162067Y84800D01*
X161954Y84873D01*
X161844Y84949D01*
X161736Y85028D01*
X161630Y85111D01*
X161527Y85196D01*
X161427Y85285D01*
X161329Y85376D01*
X161234Y85471D01*
X161141Y85568D01*
X161052Y85668D01*
X160966Y85770D01*
X160883Y85875D01*
X160803Y85983D01*
X160726Y86093D01*
X160652Y86205D01*
X160582Y86319D01*
X160515Y86435D01*
X160452Y86553D01*
X160392Y86673D01*
X160336Y86795D01*
X160284Y86918D01*
X160235Y87043D01*
X160190Y87169D01*
X160149Y87297D01*
X160112Y87425D01*
X160078Y87555D01*
X160048Y87686D01*
X160023Y87817D01*
X160001Y87949D01*
X159983Y88082D01*
X159969Y88216D01*
X159959Y88349D01*
X159953Y88483D01*
X159951Y88617D01*
D13*
X195203Y92031D02*
X195203Y98819D01*
X195202Y92031D02*
X195204Y91930D01*
X195210Y91829D01*
X195220Y91728D01*
X195233Y91628D01*
X195251Y91528D01*
X195272Y91429D01*
X195298Y91331D01*
X195327Y91234D01*
X195359Y91138D01*
X195396Y91044D01*
X195436Y90951D01*
X195480Y90859D01*
X195527Y90770D01*
X195578Y90682D01*
X195632Y90596D01*
X195689Y90513D01*
X195749Y90431D01*
X195813Y90353D01*
X195879Y90276D01*
X195949Y90203D01*
X196021Y90132D01*
X196096Y90064D01*
X196174Y89999D01*
X196254Y89937D01*
X196336Y89878D01*
X196421Y89822D01*
X196508Y89770D01*
X196596Y89721D01*
X196687Y89675D01*
X196779Y89634D01*
X196873Y89595D01*
X196968Y89561D01*
X197064Y89530D01*
X197162Y89503D01*
X197260Y89479D01*
X197360Y89460D01*
X197460Y89444D01*
X197560Y89432D01*
X197661Y89424D01*
X197762Y89420D01*
X197864Y89420D01*
X197965Y89424D01*
X198066Y89432D01*
X198166Y89444D01*
X198266Y89460D01*
X198366Y89479D01*
X198464Y89503D01*
X198562Y89530D01*
X198658Y89561D01*
X198753Y89595D01*
X198847Y89634D01*
X198939Y89675D01*
X199030Y89721D01*
X199118Y89770D01*
X199205Y89822D01*
X199290Y89878D01*
X199372Y89937D01*
X199452Y89999D01*
X199530Y90064D01*
X199605Y90132D01*
X199677Y90203D01*
X199747Y90276D01*
X199813Y90353D01*
X199877Y90431D01*
X199937Y90513D01*
X199994Y90596D01*
X200048Y90682D01*
X200099Y90770D01*
X200146Y90859D01*
X200190Y90951D01*
X200230Y91044D01*
X200267Y91138D01*
X200299Y91234D01*
X200328Y91331D01*
X200354Y91429D01*
X200375Y91528D01*
X200393Y91628D01*
X200406Y91728D01*
X200416Y91829D01*
X200422Y91930D01*
X200424Y92031D01*
X200424Y98819D01*
X204651Y96730D02*
X207262Y98819D01*
X207262Y89421D01*
X204651Y89421D02*
X209873Y89421D01*
D11*
X330454Y89484D02*
X330454Y81026D01*
X322806Y81026D01*
X302006Y81026D02*
X302006Y89484D01*
X302006Y81026D02*
X309904Y81026D01*
D10*
X310711Y86050D02*
X310711Y91186D01*
X310711Y86050D02*
X310713Y85963D01*
X310719Y85875D01*
X310728Y85788D01*
X310742Y85702D01*
X310759Y85616D01*
X310780Y85532D01*
X310805Y85448D01*
X310834Y85365D01*
X310866Y85284D01*
X310901Y85204D01*
X310940Y85126D01*
X310983Y85049D01*
X311029Y84975D01*
X311078Y84903D01*
X311130Y84833D01*
X311186Y84765D01*
X311244Y84700D01*
X311305Y84637D01*
X311369Y84578D01*
X311436Y84521D01*
X311504Y84467D01*
X311576Y84416D01*
X311649Y84369D01*
X311724Y84324D01*
X311802Y84283D01*
X311881Y84246D01*
X311961Y84212D01*
X312043Y84182D01*
X312126Y84155D01*
X312211Y84132D01*
X312296Y84113D01*
X312382Y84098D01*
X312469Y84086D01*
X312556Y84078D01*
X312643Y84074D01*
X312731Y84074D01*
X312818Y84078D01*
X312905Y84086D01*
X312992Y84098D01*
X313078Y84113D01*
X313163Y84132D01*
X313248Y84155D01*
X313331Y84182D01*
X313413Y84212D01*
X313493Y84246D01*
X313572Y84283D01*
X313650Y84324D01*
X313725Y84369D01*
X313798Y84416D01*
X313870Y84467D01*
X313938Y84521D01*
X314005Y84578D01*
X314069Y84637D01*
X314130Y84700D01*
X314188Y84765D01*
X314244Y84833D01*
X314296Y84903D01*
X314345Y84975D01*
X314391Y85049D01*
X314434Y85126D01*
X314473Y85204D01*
X314508Y85284D01*
X314540Y85365D01*
X314569Y85448D01*
X314594Y85532D01*
X314615Y85616D01*
X314632Y85702D01*
X314646Y85788D01*
X314655Y85875D01*
X314661Y85963D01*
X314663Y86050D01*
X314662Y86050D02*
X314662Y91186D01*
X319971Y91186D02*
X320053Y91184D01*
X320135Y91178D01*
X320217Y91169D01*
X320298Y91156D01*
X320378Y91139D01*
X320458Y91118D01*
X320536Y91094D01*
X320613Y91066D01*
X320689Y91035D01*
X320764Y91000D01*
X320836Y90961D01*
X320907Y90920D01*
X320976Y90875D01*
X321042Y90827D01*
X321107Y90776D01*
X321169Y90722D01*
X321228Y90665D01*
X321285Y90606D01*
X321339Y90544D01*
X321390Y90479D01*
X321438Y90413D01*
X321483Y90344D01*
X321524Y90273D01*
X321563Y90201D01*
X321598Y90126D01*
X321629Y90050D01*
X321657Y89973D01*
X321681Y89895D01*
X321702Y89815D01*
X321719Y89735D01*
X321732Y89654D01*
X321741Y89572D01*
X321747Y89490D01*
X321749Y89408D01*
X319971Y91186D02*
X319878Y91184D01*
X319786Y91178D01*
X319694Y91169D01*
X319602Y91156D01*
X319511Y91139D01*
X319421Y91119D01*
X319331Y91095D01*
X319243Y91067D01*
X319155Y91035D01*
X319070Y91001D01*
X318985Y90962D01*
X318903Y90921D01*
X318822Y90876D01*
X318742Y90827D01*
X318665Y90776D01*
X318590Y90722D01*
X318518Y90664D01*
X318448Y90604D01*
X318380Y90540D01*
X318315Y90475D01*
X318252Y90406D01*
X318193Y90335D01*
X318136Y90262D01*
X318082Y90186D01*
X318032Y90109D01*
X317984Y90029D01*
X317940Y89948D01*
X317900Y89864D01*
X317862Y89780D01*
X317828Y89693D01*
X317798Y89606D01*
X321156Y88025D02*
X321217Y88086D01*
X321275Y88149D01*
X321330Y88215D01*
X321383Y88283D01*
X321432Y88354D01*
X321477Y88426D01*
X321520Y88501D01*
X321559Y88577D01*
X321595Y88656D01*
X321627Y88735D01*
X321655Y88816D01*
X321680Y88899D01*
X321701Y88982D01*
X321718Y89066D01*
X321732Y89151D01*
X321741Y89236D01*
X321747Y89322D01*
X321749Y89408D01*
X321156Y88025D02*
X317798Y84074D01*
X321749Y84074D01*
M02*
